<svg width="540" height="420" viewBox="0 0 540 420" fill="none" xmlns="http://www.w3.org/2000/svg">
<g clip-path="url(#clip0_2240_26117)">
<path d="M0 0H540V420H0V0Z" fill="url(#paint0_linear_2240_26117)"/>
<rect width="200" height="44" transform="translate(20 85)" fill="black"/>
<path d="M70.682 117.309C69.4989 117.309 68.4186 117.111 67.4413 116.717C66.4639 116.323 65.6323 115.74 64.9465 114.968C64.2606 114.179 63.729 113.211 63.3518 112.062C62.9746 110.896 62.786 109.55 62.786 108.024C62.786 106.498 62.9746 105.16 63.3518 104.012C63.729 102.846 64.2606 101.877 64.9465 101.105C65.6323 100.316 66.4639 99.7249 67.4413 99.3305C68.4186 98.9361 69.4989 98.739 70.682 98.739C71.8651 98.739 72.9453 98.9361 73.9227 99.3305C74.9 99.7249 75.7316 100.316 76.4175 101.105C77.1033 101.877 77.6349 102.846 78.0121 104.012C78.3893 105.16 78.5779 106.498 78.5779 108.024C78.5779 109.55 78.3893 110.896 78.0121 112.062C77.6349 113.211 77.1033 114.179 76.4175 114.968C75.7316 115.74 74.9 116.323 73.9227 116.717C72.9453 117.111 71.8651 117.309 70.682 117.309ZM70.682 113.836C71.8651 113.836 72.7824 113.451 73.434 112.679C74.1027 111.907 74.4371 110.802 74.4371 109.361V106.686C74.4371 105.246 74.1027 104.14 73.434 103.369C72.7824 102.597 71.8651 102.211 70.682 102.211C69.4989 102.211 68.5729 102.597 67.9042 103.369C67.2527 104.14 66.9269 105.246 66.9269 106.686V109.361C66.9269 110.802 67.2527 111.907 67.9042 112.679C68.5729 113.451 69.4989 113.836 70.682 113.836ZM81.8924 103.497H85.6989V105.76H85.8275C86.0161 105.006 86.4448 104.389 87.1135 103.909C87.7993 103.429 88.5795 103.188 89.454 103.188C91.1686 103.188 92.4632 103.789 93.3377 104.989C94.2121 106.189 94.6494 107.938 94.6494 110.236C94.6494 112.533 94.2121 114.291 93.3377 115.508C92.4632 116.709 91.1686 117.309 89.454 117.309C89.0082 117.309 88.5881 117.24 88.1937 117.103C87.7993 116.983 87.4393 116.811 87.1135 116.588C86.8048 116.348 86.5391 116.074 86.3162 115.765C86.0933 115.44 85.9304 115.097 85.8275 114.737H85.6989V122.144H81.8924V103.497ZM88.1937 114.222C88.9139 114.222 89.5054 113.974 89.9684 113.476C90.4485 112.962 90.6885 112.276 90.6885 111.419V109.078C90.6885 108.221 90.4485 107.544 89.9684 107.046C89.5054 106.532 88.9139 106.275 88.1937 106.275C87.4736 106.275 86.8734 106.455 86.3933 106.815C85.9304 107.158 85.6989 107.638 85.6989 108.255V112.242C85.6989 112.859 85.9304 113.348 86.3933 113.708C86.8734 114.051 87.4736 114.222 88.1937 114.222ZM103.43 117.309C102.401 117.309 101.484 117.146 100.678 116.82C99.8722 116.477 99.1863 116.006 98.6205 115.405C98.0718 114.788 97.6517 114.042 97.3602 113.168C97.0859 112.293 96.9487 111.316 96.9487 110.236C96.9487 109.173 97.0859 108.212 97.3602 107.355C97.6346 106.481 98.0375 105.735 98.569 105.117C99.1177 104.5 99.7864 104.029 100.575 103.703C101.364 103.36 102.264 103.188 103.276 103.188C104.39 103.188 105.342 103.377 106.131 103.754C106.937 104.132 107.588 104.637 108.085 105.272C108.6 105.906 108.968 106.644 109.191 107.484C109.431 108.307 109.551 109.173 109.551 110.081V111.213H100.884V111.419C100.884 112.31 101.124 113.022 101.604 113.554C102.084 114.068 102.839 114.325 103.867 114.325C104.656 114.325 105.299 114.171 105.796 113.862C106.294 113.536 106.757 113.151 107.185 112.705L109.088 115.071C108.488 115.774 107.7 116.323 106.722 116.717C105.762 117.111 104.665 117.309 103.43 117.309ZM103.353 105.992C102.581 105.992 101.973 106.249 101.527 106.764C101.098 107.261 100.884 107.929 100.884 108.77V108.975H105.616V108.744C105.616 107.921 105.428 107.261 105.05 106.764C104.69 106.249 104.125 105.992 103.353 105.992ZM112.497 117V103.497H116.303V105.786H116.458C116.698 105.083 117.118 104.474 117.718 103.96C118.318 103.446 119.15 103.188 120.213 103.188C121.602 103.188 122.648 103.651 123.351 104.577C124.071 105.503 124.431 106.824 124.431 108.538V117H120.624V108.847C120.624 107.972 120.487 107.329 120.213 106.918C119.938 106.489 119.45 106.275 118.747 106.275C118.438 106.275 118.138 106.318 117.847 106.403C117.555 106.472 117.289 106.592 117.049 106.764C116.826 106.935 116.646 107.149 116.509 107.407C116.372 107.647 116.303 107.929 116.303 108.255V117H112.497ZM131.544 117L125.757 99.0476H129.718L132.392 107.664L133.807 113.296H133.884L135.247 107.664L137.922 99.0476H141.754L135.916 117H131.544ZM144.362 117V99.0476H152.85C153.69 99.0476 154.444 99.1933 155.113 99.4848C155.782 99.7592 156.348 100.145 156.81 100.642C157.291 101.139 157.659 101.748 157.916 102.468C158.174 103.171 158.302 103.943 158.302 104.783C158.302 105.64 158.174 106.421 157.916 107.124C157.659 107.827 157.291 108.427 156.81 108.924C156.348 109.421 155.782 109.816 155.113 110.107C154.444 110.381 153.69 110.519 152.85 110.519H148.272V117H144.362ZM148.272 107.124H152.387C152.97 107.124 153.424 106.978 153.75 106.686C154.093 106.378 154.264 105.932 154.264 105.349V104.217C154.264 103.634 154.093 103.197 153.75 102.906C153.424 102.597 152.97 102.443 152.387 102.443H148.272V107.124ZM166.976 108.512L165.253 104.912H165.176V117H161.498V99.0476H165.767L170.68 107.535L172.403 111.136H172.48V99.0476H176.158V117H171.889L166.976 108.512Z" fill="url(#paint1_linear_2240_26117)"/>
<rect width="152" height="42" transform="translate(368 358)" fill="black"/>
<path d="M383.81 389L379.746 371.048H383.604L385.301 379.664L386.253 384.653H386.33L387.462 379.664L389.442 371.048H393.712L395.718 379.664L396.824 384.653H396.901L397.853 379.664L399.576 371.048H403.279L399.113 389H394.663L392.4 379.278L391.526 375.343H391.448L390.548 379.278L388.285 389H383.81ZM407.952 374.057C407.18 374.057 406.614 373.885 406.254 373.542C405.911 373.182 405.74 372.728 405.74 372.179V371.613C405.74 371.065 405.911 370.619 406.254 370.276C406.614 369.916 407.18 369.736 407.952 369.736C408.723 369.736 409.28 369.916 409.623 370.276C409.983 370.619 410.164 371.065 410.164 371.613V372.179C410.164 372.728 409.983 373.182 409.623 373.542C409.28 373.885 408.723 374.057 407.952 374.057ZM406.048 375.497H409.855V389H406.048V375.497ZM413.665 389V375.497H417.471V378.429H417.6C417.669 378.052 417.789 377.692 417.96 377.349C418.132 376.989 418.354 376.672 418.629 376.397C418.92 376.123 419.263 375.909 419.658 375.754C420.052 375.583 420.515 375.497 421.046 375.497H421.715V379.046H420.764C419.649 379.046 418.817 379.192 418.269 379.484C417.737 379.775 417.471 380.315 417.471 381.104V389H413.665ZM429.828 389.309C428.799 389.309 427.881 389.146 427.075 388.82C426.27 388.477 425.584 388.006 425.018 387.405C424.469 386.788 424.049 386.042 423.758 385.168C423.483 384.293 423.346 383.316 423.346 382.236C423.346 381.173 423.483 380.212 423.758 379.355C424.032 378.481 424.435 377.735 424.966 377.117C425.515 376.5 426.184 376.029 426.973 375.703C427.761 375.36 428.662 375.188 429.673 375.188C430.788 375.188 431.739 375.377 432.528 375.754C433.334 376.132 433.986 376.637 434.483 377.272C434.997 377.906 435.366 378.644 435.589 379.484C435.829 380.307 435.949 381.173 435.949 382.081V383.213H427.281V383.419C427.281 384.31 427.521 385.022 428.001 385.554C428.482 386.068 429.236 386.325 430.265 386.325C431.053 386.325 431.696 386.171 432.194 385.862C432.691 385.536 433.154 385.151 433.583 384.705L435.486 387.071C434.886 387.774 434.097 388.323 433.12 388.717C432.159 389.111 431.062 389.309 429.828 389.309ZM429.75 377.992C428.979 377.992 428.37 378.249 427.924 378.764C427.496 379.261 427.281 379.929 427.281 380.77V380.975H432.014V380.744C432.014 379.921 431.825 379.261 431.448 378.764C431.088 378.249 430.522 377.992 429.75 377.992ZM451.394 389.977C451.394 390.698 451.266 391.332 451.008 391.881C450.768 392.429 450.365 392.892 449.8 393.269C449.234 393.664 448.479 393.955 447.536 394.144C446.61 394.35 445.461 394.453 444.09 394.453C442.924 394.453 441.929 394.375 441.106 394.221C440.3 394.084 439.64 393.878 439.126 393.604C438.629 393.347 438.26 393.021 438.02 392.626C437.797 392.249 437.686 391.812 437.686 391.315C437.686 390.56 437.908 389.969 438.354 389.54C438.8 389.111 439.417 388.846 440.206 388.743V388.46C439.554 388.34 439.066 388.066 438.74 387.637C438.414 387.191 438.251 386.677 438.251 386.094C438.251 385.734 438.32 385.425 438.457 385.168C438.611 384.893 438.8 384.662 439.023 384.473C439.263 384.268 439.537 384.105 439.846 383.985C440.155 383.865 440.463 383.77 440.772 383.702V383.599C439.949 383.222 439.34 382.707 438.946 382.056C438.551 381.387 438.354 380.615 438.354 379.741C438.354 378.369 438.826 377.272 439.769 376.449C440.729 375.609 442.186 375.188 444.141 375.188C445.033 375.188 445.796 375.274 446.43 375.446V374.931C446.43 374.211 446.602 373.697 446.945 373.388C447.305 373.062 447.811 372.899 448.462 372.899H450.597V375.729H447.613V375.883C448.402 376.26 448.985 376.783 449.362 377.452C449.74 378.103 449.928 378.866 449.928 379.741C449.928 381.095 449.448 382.184 448.488 383.007C447.545 383.813 446.096 384.216 444.141 384.216C443.267 384.216 442.469 384.122 441.749 383.933C441.355 384.19 441.158 384.55 441.158 385.013C441.158 385.339 441.278 385.596 441.518 385.785C441.775 385.956 442.195 386.042 442.778 386.042H446.687C448.334 386.042 449.525 386.385 450.262 387.071C451.017 387.757 451.394 388.726 451.394 389.977ZM447.819 390.492C447.819 390.097 447.665 389.797 447.356 389.592C447.048 389.386 446.507 389.283 445.736 389.283H441.106C440.935 389.454 440.806 389.643 440.72 389.849C440.652 390.072 440.618 390.286 440.618 390.492C440.618 390.989 440.832 391.349 441.261 391.572C441.689 391.812 442.418 391.932 443.447 391.932H444.99C446.019 391.932 446.747 391.812 447.176 391.572C447.605 391.349 447.819 390.989 447.819 390.492ZM444.141 381.721C444.896 381.721 445.453 381.567 445.813 381.258C446.19 380.933 446.379 380.47 446.379 379.869V379.561C446.379 378.961 446.19 378.506 445.813 378.198C445.453 377.872 444.896 377.709 444.141 377.709C443.387 377.709 442.821 377.872 442.444 378.198C442.084 378.506 441.904 378.961 441.904 379.561V379.869C441.904 380.47 442.084 380.933 442.444 381.258C442.821 381.567 443.387 381.721 444.141 381.721ZM461.215 386.737H461.087C460.967 387.08 460.804 387.405 460.598 387.714C460.409 388.023 460.161 388.297 459.852 388.537C459.544 388.777 459.175 388.966 458.746 389.103C458.335 389.24 457.855 389.309 457.306 389.309C455.917 389.309 454.863 388.854 454.142 387.945C453.439 387.02 453.088 385.699 453.088 383.985V375.497H456.894V383.65C456.894 384.473 457.04 385.108 457.332 385.554C457.623 385.999 458.12 386.222 458.823 386.222C459.115 386.222 459.406 386.179 459.698 386.094C459.989 386.008 460.247 385.888 460.469 385.734C460.692 385.562 460.872 385.356 461.01 385.116C461.147 384.876 461.215 384.593 461.215 384.268V375.497H465.022V389H461.215V386.737ZM478.8 389C478.114 389 477.54 388.786 477.077 388.357C476.631 387.928 476.348 387.354 476.228 386.634H476.074C475.868 387.508 475.414 388.177 474.711 388.64C474.008 389.086 473.142 389.309 472.113 389.309C470.758 389.309 469.721 388.949 469.001 388.228C468.281 387.508 467.921 386.557 467.921 385.374C467.921 383.95 468.435 382.896 469.464 382.21C470.51 381.507 471.924 381.155 473.707 381.155H475.842V380.307C475.842 379.655 475.671 379.141 475.328 378.764C474.985 378.369 474.41 378.172 473.605 378.172C472.85 378.172 472.25 378.335 471.804 378.661C471.358 378.986 470.99 379.355 470.698 379.767L468.435 377.76C468.984 376.955 469.669 376.329 470.493 375.883C471.333 375.42 472.464 375.188 473.888 375.188C475.808 375.188 477.248 375.609 478.208 376.449C479.169 377.289 479.649 378.515 479.649 380.127V386.042H480.909V389H478.8ZM473.527 386.659C474.162 386.659 474.702 386.522 475.148 386.248C475.611 385.974 475.842 385.528 475.842 384.911V383.316H473.99C472.499 383.316 471.753 383.822 471.753 384.833V385.219C471.753 385.716 471.907 386.085 472.216 386.325C472.524 386.548 472.962 386.659 473.527 386.659ZM483.721 389V375.497H487.528V378.429H487.656C487.725 378.052 487.845 377.692 488.016 377.349C488.188 376.989 488.411 376.672 488.685 376.397C488.977 376.123 489.319 375.909 489.714 375.754C490.108 375.583 490.571 375.497 491.103 375.497H491.771V379.046H490.82C489.705 379.046 488.874 379.192 488.325 379.484C487.793 379.775 487.528 380.315 487.528 381.104V389H483.721ZM502.558 386.737H502.429C502.327 387.097 502.164 387.44 501.941 387.765C501.718 388.074 501.444 388.348 501.118 388.588C500.809 388.811 500.449 388.983 500.037 389.103C499.643 389.24 499.232 389.309 498.803 389.309C497.088 389.309 495.794 388.709 494.919 387.508C494.045 386.291 493.608 384.533 493.608 382.236C493.608 379.938 494.045 378.189 494.919 376.989C495.794 375.789 497.088 375.188 498.803 375.188C499.677 375.188 500.449 375.429 501.118 375.909C501.804 376.389 502.241 377.006 502.429 377.76H502.558V369.967H506.365V389H502.558V386.737ZM500.063 386.222C500.783 386.222 501.375 386.051 501.838 385.708C502.318 385.348 502.558 384.859 502.558 384.242V380.255C502.558 379.638 502.318 379.158 501.838 378.815C501.375 378.455 500.783 378.275 500.063 378.275C499.343 378.275 498.743 378.532 498.263 379.046C497.8 379.544 497.568 380.221 497.568 381.078V383.419C497.568 384.276 497.8 384.962 498.263 385.476C498.743 385.974 499.343 386.222 500.063 386.222Z" fill="url(#paint2_linear_2240_26117)"/>
<rect width="140" height="95" transform="translate(224 179)" fill="black"/>
<path d="M268.233 236.809C267.016 236.809 265.919 236.62 264.941 236.243C263.964 235.848 263.132 235.274 262.446 234.52C261.761 233.748 261.229 232.796 260.852 231.665C260.475 230.516 260.286 229.178 260.286 227.652C260.286 226.144 260.475 224.806 260.852 223.64C261.229 222.457 261.761 221.471 262.446 220.682C263.132 219.876 263.964 219.268 264.941 218.856C265.919 218.445 267.016 218.239 268.233 218.239C269.897 218.239 271.268 218.582 272.349 219.268C273.429 219.936 274.295 221 274.946 222.457L271.577 224.206C271.337 223.451 270.96 222.851 270.445 222.406C269.948 221.943 269.211 221.711 268.233 221.711C267.085 221.711 266.159 222.088 265.456 222.843C264.77 223.58 264.427 224.66 264.427 226.083V228.964C264.427 230.387 264.77 231.476 265.456 232.231C266.159 232.968 267.085 233.336 268.233 233.336C269.194 233.336 269.957 233.079 270.522 232.565C271.105 232.033 271.534 231.399 271.808 230.662L274.998 232.513C274.329 233.885 273.446 234.948 272.349 235.703C271.268 236.44 269.897 236.809 268.233 236.809ZM281.566 236.5C280.263 236.5 279.302 236.183 278.685 235.548C278.085 234.914 277.785 233.997 277.785 232.796V217.467H281.591V233.542H283.289V236.5H281.566ZM291.307 236.809C290.312 236.809 289.421 236.646 288.632 236.32C287.86 235.994 287.2 235.523 286.651 234.905C286.12 234.288 285.708 233.542 285.417 232.668C285.125 231.793 284.98 230.816 284.98 229.736C284.98 228.655 285.125 227.678 285.417 226.804C285.708 225.929 286.12 225.192 286.651 224.592C287.2 223.974 287.86 223.503 288.632 223.177C289.421 222.851 290.312 222.688 291.307 222.688C292.301 222.688 293.184 222.851 293.956 223.177C294.745 223.503 295.405 223.974 295.936 224.592C296.485 225.192 296.905 225.929 297.196 226.804C297.488 227.678 297.634 228.655 297.634 229.736C297.634 230.816 297.488 231.793 297.196 232.668C296.905 233.542 296.485 234.288 295.936 234.905C295.405 235.523 294.745 235.994 293.956 236.32C293.184 236.646 292.301 236.809 291.307 236.809ZM291.307 233.799C292.061 233.799 292.644 233.568 293.056 233.105C293.467 232.642 293.673 231.982 293.673 231.125V228.373C293.673 227.515 293.467 226.855 293.056 226.392C292.644 225.929 292.061 225.698 291.307 225.698C290.552 225.698 289.969 225.929 289.558 226.392C289.146 226.855 288.94 227.515 288.94 228.373V231.125C288.94 231.982 289.146 232.642 289.558 233.105C289.969 233.568 290.552 233.799 291.307 233.799ZM310.582 236.5C309.897 236.5 309.322 236.286 308.859 235.857C308.413 235.428 308.13 234.854 308.01 234.134H307.856C307.65 235.008 307.196 235.677 306.493 236.14C305.79 236.586 304.924 236.809 303.895 236.809C302.541 236.809 301.503 236.449 300.783 235.728C300.063 235.008 299.703 234.057 299.703 232.874C299.703 231.45 300.217 230.396 301.246 229.71C302.292 229.007 303.707 228.655 305.49 228.655H307.625V227.807C307.625 227.155 307.453 226.641 307.11 226.264C306.767 225.869 306.193 225.672 305.387 225.672C304.633 225.672 304.032 225.835 303.587 226.161C303.141 226.486 302.772 226.855 302.481 227.267L300.217 225.26C300.766 224.455 301.452 223.829 302.275 223.383C303.115 222.92 304.247 222.688 305.67 222.688C307.59 222.688 309.031 223.109 309.991 223.949C310.951 224.789 311.431 226.015 311.431 227.627V233.542H312.691V236.5H310.582ZM305.31 234.159C305.944 234.159 306.484 234.022 306.93 233.748C307.393 233.474 307.625 233.028 307.625 232.411V230.816H305.773C304.281 230.816 303.535 231.322 303.535 232.333V232.719C303.535 233.216 303.69 233.585 303.998 233.825C304.307 234.048 304.744 234.159 305.31 234.159ZM315.504 217.467H319.31V228.707H319.464L321.136 226.212L323.837 222.997H328.055L323.554 228.167L328.569 236.5H324.043L321.008 230.79L319.31 232.693V236.5H315.504V217.467Z" fill="url(#paint3_linear_2240_26117)"/>
<path d="M20 356H221V400H25C22.2386 400 20 397.761 20 395V356Z" fill="black"/>
<path d="M84.286 388V384.888H86.6008V373.16H84.286V370.048H92.825V373.16H90.5102V384.888H92.825V388H84.286ZM102.589 380.181L100.249 383.01V388H96.3393V370.048H100.249V378.587H100.403L102.949 375.114L106.987 370.048H111.411L105.367 377.429L111.951 388H107.347L102.589 380.181ZM114.505 388V370.048H126.722V373.52H118.414V377.198H125.539V380.644H118.414V384.528H126.722V388H114.505ZM133.06 388L128.636 374.497H132.391L134.063 379.95L135.323 384.836H135.529L136.789 379.95L138.409 374.497H142.01L137.586 388H133.06ZM156.673 388H143.967V384.476L149.497 379.744C149.994 379.315 150.414 378.929 150.757 378.587C151.1 378.226 151.374 377.884 151.58 377.558C151.803 377.215 151.957 376.88 152.043 376.555C152.146 376.229 152.197 375.877 152.197 375.5V375.14C152.197 374.797 152.129 374.497 151.992 374.24C151.855 373.983 151.674 373.768 151.452 373.597C151.229 373.425 150.971 373.297 150.68 373.211C150.406 373.125 150.123 373.083 149.831 373.083C149.403 373.083 149.025 373.151 148.7 373.288C148.391 373.425 148.117 373.614 147.877 373.854C147.654 374.077 147.465 374.343 147.311 374.651C147.156 374.943 147.036 375.26 146.951 375.603L143.581 374.317C143.787 373.7 144.07 373.117 144.43 372.568C144.79 372.002 145.236 371.514 145.768 371.102C146.316 370.673 146.959 370.339 147.697 370.099C148.434 369.859 149.265 369.739 150.191 369.739C151.169 369.739 152.035 369.876 152.789 370.15C153.543 370.425 154.178 370.802 154.692 371.282C155.224 371.762 155.627 372.337 155.901 373.005C156.175 373.657 156.313 374.369 156.313 375.14C156.313 375.912 156.184 376.615 155.927 377.249C155.67 377.884 155.318 378.484 154.872 379.05C154.444 379.598 153.938 380.121 153.355 380.618C152.772 381.116 152.163 381.621 151.529 382.136L148.185 384.759H156.673V388Z" fill="url(#paint4_linear_2240_26117)"/>
<path d="M311 20H515C517.761 20 520 22.2386 520 25V129H311V20Z" fill="black"/>
<path d="M338.793 84.8086C337.216 84.8086 335.878 84.5429 334.781 84.0113C333.683 83.4626 332.749 82.7596 331.977 81.9023L334.549 79.3046C335.767 80.6763 337.267 81.3622 339.05 81.3622C340.01 81.3622 340.722 81.165 341.185 80.7706C341.648 80.3763 341.879 79.8533 341.879 79.2017C341.879 78.7045 341.742 78.293 341.468 77.9672C341.194 77.6242 340.636 77.3928 339.796 77.2727L338.022 77.0413C336.118 76.8012 334.721 76.2268 333.829 75.318C332.955 74.4093 332.517 73.2004 332.517 71.6915C332.517 70.8857 332.672 70.1484 332.98 69.4796C333.289 68.8109 333.726 68.2365 334.292 67.7564C334.875 67.2763 335.578 66.9077 336.401 66.6505C337.241 66.3761 338.193 66.239 339.256 66.239C340.611 66.239 341.802 66.4533 342.831 66.8819C343.86 67.3106 344.743 67.9365 345.48 68.7595L342.883 71.3829C342.454 70.8857 341.931 70.4827 341.314 70.1741C340.714 69.8483 339.95 69.6854 339.025 69.6854C338.15 69.6854 337.499 69.8397 337.07 70.1484C336.641 70.457 336.427 70.8857 336.427 71.4344C336.427 72.0516 336.59 72.4974 336.916 72.7718C337.258 73.0461 337.807 73.2433 338.562 73.3633L340.336 73.6463C342.188 73.9377 343.56 74.5122 344.451 75.3695C345.343 76.2097 345.789 77.4099 345.789 78.9702C345.789 79.8276 345.635 80.6163 345.326 81.3365C345.017 82.0566 344.563 82.6739 343.963 83.1883C343.38 83.7027 342.651 84.1056 341.777 84.3971C340.902 84.6715 339.908 84.8086 338.793 84.8086ZM349.082 65.4674H352.888V73.2862H353.042C353.283 72.5832 353.703 71.9745 354.303 71.4601C354.903 70.9457 355.734 70.6885 356.798 70.6885C358.186 70.6885 359.232 71.1514 359.935 72.0773C360.656 73.0033 361.016 74.3235 361.016 76.0382V84.5H357.209V76.3468C357.209 75.4724 357.072 74.8294 356.798 74.4178C356.523 73.9892 356.035 73.7749 355.332 73.7749C355.023 73.7749 354.723 73.8177 354.431 73.9034C354.14 73.972 353.874 74.0921 353.634 74.2635C353.411 74.435 353.231 74.6493 353.094 74.9065C352.957 75.1466 352.888 75.4295 352.888 75.7553V84.5H349.082V65.4674ZM374.639 84.5C373.954 84.5 373.379 84.2857 372.916 83.857C372.47 83.4283 372.187 82.8539 372.067 82.1338H371.913C371.707 83.0083 371.253 83.677 370.55 84.1399C369.847 84.5857 368.981 84.8086 367.952 84.8086C366.598 84.8086 365.56 84.4486 364.84 83.7284C364.12 83.0083 363.76 82.0566 363.76 80.8735C363.76 79.4503 364.274 78.3958 365.303 77.71C366.349 77.007 367.764 76.6555 369.547 76.6555H371.682V75.8067C371.682 75.1551 371.51 74.6407 371.167 74.2635C370.824 73.8692 370.25 73.672 369.444 73.672C368.69 73.672 368.089 73.8349 367.644 74.1606C367.198 74.4864 366.829 74.8551 366.538 75.2666L364.274 73.2605C364.823 72.4546 365.509 71.8287 366.332 71.3829C367.172 70.92 368.304 70.6885 369.727 70.6885C371.647 70.6885 373.088 71.1086 374.048 71.9487C375.008 72.7889 375.488 74.0149 375.488 75.6267V81.5422H376.748V84.5H374.639ZM369.367 82.1595C370.001 82.1595 370.541 82.0223 370.987 81.748C371.45 81.4736 371.682 81.0278 371.682 80.4106V78.8159H369.83C368.338 78.8159 367.592 79.3218 367.592 80.3334V80.7192C367.592 81.2164 367.747 81.5851 368.055 81.8251C368.364 82.048 368.801 82.1595 369.367 82.1595ZM387.842 82.2367H387.714C387.611 82.5967 387.448 82.9397 387.225 83.2655C387.002 83.5741 386.728 83.8484 386.402 84.0885C386.093 84.3114 385.733 84.4829 385.322 84.6029C384.927 84.7401 384.516 84.8086 384.087 84.8086C382.373 84.8086 381.078 84.2085 380.204 83.0083C379.329 81.7908 378.892 80.0333 378.892 77.7357C378.892 75.4381 379.329 73.6891 380.204 72.4889C381.078 71.2886 382.373 70.6885 384.087 70.6885C384.962 70.6885 385.733 70.9285 386.402 71.4086C387.088 71.8887 387.525 72.506 387.714 73.2605H387.842V65.4674H391.649V84.5H387.842V82.2367ZM385.348 81.7223C386.068 81.7223 386.659 81.5508 387.122 81.2079C387.602 80.8478 387.842 80.3591 387.842 79.7418V75.7553C387.842 75.138 387.602 74.6579 387.122 74.315C386.659 73.9549 386.068 73.7749 385.348 73.7749C384.627 73.7749 384.027 74.032 383.547 74.5464C383.084 75.0437 382.853 75.721 382.853 76.5783V78.9188C382.853 79.7761 383.084 80.462 383.547 80.9764C384.027 81.4736 384.627 81.7223 385.348 81.7223ZM400.944 84.8086C399.949 84.8086 399.058 84.6457 398.269 84.32C397.497 83.9942 396.837 83.5226 396.289 82.9054C395.757 82.2881 395.346 81.5422 395.054 80.6678C394.763 79.7933 394.617 78.8159 394.617 77.7357C394.617 76.6555 394.763 75.6781 395.054 74.8036C395.346 73.9292 395.757 73.1919 396.289 72.5917C396.837 71.9745 397.497 71.5029 398.269 71.1772C399.058 70.8514 399.949 70.6885 400.944 70.6885C401.938 70.6885 402.821 70.8514 403.593 71.1772C404.382 71.5029 405.042 71.9745 405.574 72.5917C406.122 73.1919 406.542 73.9292 406.834 74.8036C407.125 75.6781 407.271 76.6555 407.271 77.7357C407.271 78.8159 407.125 79.7933 406.834 80.6678C406.542 81.5422 406.122 82.2881 405.574 82.9054C405.042 83.5226 404.382 83.9942 403.593 84.32C402.821 84.6457 401.938 84.8086 400.944 84.8086ZM400.944 81.7994C401.698 81.7994 402.281 81.5679 402.693 81.105C403.104 80.642 403.31 79.9819 403.31 79.1246V76.3725C403.31 75.5152 403.104 74.8551 402.693 74.3921C402.281 73.9292 401.698 73.6977 400.944 73.6977C400.189 73.6977 399.607 73.9292 399.195 74.3921C398.783 74.8551 398.578 75.5152 398.578 76.3725V79.1246C398.578 79.9819 398.783 80.642 399.195 81.105C399.607 81.5679 400.189 81.7994 400.944 81.7994ZM408.703 70.9971H412.381L413.693 76.4497L414.619 80.5649H414.722L415.802 76.4497L417.345 70.9971H420.817L422.386 76.4497L423.492 80.5649H423.595L424.521 76.4497L425.833 70.9971H429.356L425.627 84.5H421.64L419.994 78.7902L419.043 75.2923H418.965L418.04 78.7902L416.393 84.5H412.484L408.703 70.9971ZM436.35 84.8086C435.047 84.8086 433.949 84.6029 433.058 84.1914C432.166 83.7627 431.369 83.1626 430.666 82.391L432.903 80.1276C433.383 80.6592 433.915 81.0793 434.498 81.3879C435.081 81.6965 435.741 81.8509 436.478 81.8509C437.233 81.8509 437.756 81.7394 438.047 81.5165C438.339 81.2765 438.485 80.9592 438.485 80.5649C438.485 79.9305 438.03 79.5532 437.121 79.4332L435.655 79.2532C432.62 78.8759 431.103 77.4871 431.103 75.0866C431.103 74.435 431.223 73.8434 431.463 73.3119C431.72 72.7632 432.072 72.3002 432.518 71.923C432.981 71.5287 433.529 71.2286 434.164 71.0228C434.815 70.7999 435.544 70.6885 436.35 70.6885C437.053 70.6885 437.67 70.7399 438.202 70.8428C438.75 70.9285 439.23 71.0657 439.642 71.2543C440.071 71.4258 440.456 71.6487 440.799 71.923C441.159 72.1802 441.511 72.4717 441.854 72.7975L439.668 75.0351C439.239 74.6065 438.75 74.2721 438.202 74.032C437.67 73.7749 437.121 73.6463 436.556 73.6463C435.904 73.6463 435.441 73.7491 435.167 73.9549C434.892 74.1606 434.755 74.435 434.755 74.7779C434.755 75.138 434.85 75.4209 435.038 75.6267C435.244 75.8153 435.621 75.9525 436.17 76.0382L437.687 76.2439C440.654 76.6383 442.137 77.9929 442.137 80.3077C442.137 80.9592 442 81.5594 441.725 82.1081C441.451 82.6567 441.057 83.1369 440.542 83.5484C440.045 83.9427 439.436 84.2514 438.716 84.4743C438.013 84.6972 437.224 84.8086 436.35 84.8086ZM450.468 84.8086C449.473 84.8086 448.581 84.6457 447.793 84.32C447.021 83.9942 446.361 83.5226 445.812 82.9054C445.281 82.2881 444.869 81.5422 444.578 80.6678C444.286 79.7933 444.141 78.8159 444.141 77.7357C444.141 76.6555 444.286 75.6781 444.578 74.8036C444.869 73.9292 445.281 73.1919 445.812 72.5917C446.361 71.9745 447.021 71.5029 447.793 71.1772C448.581 70.8514 449.473 70.6885 450.468 70.6885C451.462 70.6885 452.345 70.8514 453.117 71.1772C453.905 71.5029 454.566 71.9745 455.097 72.5917C455.646 73.1919 456.066 73.9292 456.357 74.8036C456.649 75.6781 456.795 76.6555 456.795 77.7357C456.795 78.8159 456.649 79.7933 456.357 80.6678C456.066 81.5422 455.646 82.2881 455.097 82.9054C454.566 83.5226 453.905 83.9942 453.117 84.32C452.345 84.6457 451.462 84.8086 450.468 84.8086ZM450.468 81.7994C451.222 81.7994 451.805 81.5679 452.217 81.105C452.628 80.642 452.834 79.9819 452.834 79.1246V76.3725C452.834 75.5152 452.628 74.8551 452.217 74.3921C451.805 73.9292 451.222 73.6977 450.468 73.6977C449.713 73.6977 449.13 73.9292 448.719 74.3921C448.307 74.8551 448.101 75.5152 448.101 76.3725V79.1246C448.101 79.9819 448.307 80.642 448.719 81.105C449.13 81.5679 449.713 81.7994 450.468 81.7994ZM465.217 84.8086C464.205 84.8086 463.305 84.6457 462.516 84.32C461.727 83.977 461.067 83.5055 460.536 82.9054C460.004 82.2881 459.601 81.5422 459.327 80.6678C459.053 79.7933 458.915 78.8159 458.915 77.7357C458.915 76.6555 459.053 75.6867 459.327 74.8294C459.601 73.9549 460.004 73.209 460.536 72.5917C461.067 71.9745 461.727 71.5029 462.516 71.1772C463.305 70.8514 464.205 70.6885 465.217 70.6885C466.588 70.6885 467.729 70.9971 468.637 71.6144C469.563 72.2317 470.223 73.0976 470.618 74.2121L467.531 75.5495C467.411 75.0351 467.163 74.5979 466.786 74.2378C466.408 73.8777 465.885 73.6977 465.217 73.6977C464.445 73.6977 463.862 73.9549 463.468 74.4693C463.073 74.9665 462.876 75.6438 462.876 76.5011V79.0217C462.876 79.879 463.073 80.5563 463.468 81.0535C463.862 81.5508 464.445 81.7994 465.217 81.7994C465.903 81.7994 466.443 81.6194 466.837 81.2593C467.249 80.8821 467.549 80.3934 467.737 79.7933L470.695 81.0793C470.249 82.3653 469.555 83.3083 468.612 83.9084C467.686 84.5086 466.554 84.8086 465.217 84.8086ZM473.308 65.4674H477.115V76.7069H477.269L478.941 74.2121L481.641 70.9971H485.859L481.358 76.1668L486.374 84.5H481.847L478.812 78.7902L477.115 80.6935V84.5H473.308V65.4674ZM492.736 84.8086C491.433 84.8086 490.336 84.6029 489.444 84.1914C488.553 83.7627 487.755 83.1626 487.052 82.391L489.29 80.1276C489.77 80.6592 490.302 81.0793 490.885 81.3879C491.468 81.6965 492.128 81.8509 492.865 81.8509C493.619 81.8509 494.142 81.7394 494.434 81.5165C494.725 81.2765 494.871 80.9592 494.871 80.5649C494.871 79.9305 494.417 79.5532 493.508 79.4332L492.042 79.2532C489.007 78.8759 487.49 77.4871 487.49 75.0866C487.49 74.435 487.61 73.8434 487.85 73.3119C488.107 72.7632 488.458 72.3002 488.904 71.923C489.367 71.5287 489.916 71.2286 490.55 71.0228C491.202 70.7999 491.931 70.6885 492.736 70.6885C493.439 70.6885 494.057 70.7399 494.588 70.8428C495.137 70.9285 495.617 71.0657 496.029 71.2543C496.457 71.4258 496.843 71.6487 497.186 71.923C497.546 72.1802 497.898 72.4717 498.24 72.7975L496.054 75.0351C495.626 74.6065 495.137 74.2721 494.588 74.032C494.057 73.7749 493.508 73.6463 492.942 73.6463C492.291 73.6463 491.828 73.7491 491.553 73.9549C491.279 74.1606 491.142 74.435 491.142 74.7779C491.142 75.138 491.236 75.4209 491.425 75.6267C491.63 75.8153 492.008 75.9525 492.556 76.0382L494.074 76.2439C497.04 76.6383 498.523 77.9929 498.523 80.3077C498.523 80.9592 498.386 81.5594 498.112 82.1081C497.838 82.6567 497.443 83.1369 496.929 83.5484C496.432 83.9427 495.823 84.2514 495.103 84.4743C494.4 84.6972 493.611 84.8086 492.736 84.8086Z" fill="url(#paint5_linear_2240_26117)"/>
<g opacity="0.5">
<rect x="21.75" y="20.75" width="96.5" height="10.5" stroke="#494B50" stroke-width="1.5"/>
<rect x="0.75" y="0.75" width="29.5" height="10.5" transform="matrix(-4.37114e-08 1 1 4.37114e-08 21 35)" stroke="#494B50" stroke-width="1.5"/>
<rect x="0.75" y="0.75" width="29.5" height="10.5" transform="matrix(-4.37114e-08 1 1 4.37114e-08 107 35)" stroke="#494B50" stroke-width="1.5"/>
<rect x="0.75" y="0.75" width="29.5" height="10.5" transform="matrix(-4.37114e-08 1 1 4.37114e-08 36 35)" stroke="#494B50" stroke-width="1.5"/>
<rect x="0.75" y="0.75" width="29.5" height="10.5" transform="matrix(-4.37114e-08 1 1 4.37114e-08 92 35)" stroke="#494B50" stroke-width="1.5"/>
<rect x="0.75" y="0.75" width="29.5" height="36.5" transform="matrix(-4.37114e-08 1 1 4.37114e-08 51 35)" stroke="#494B50" stroke-width="1.5"/>
<rect x="21.75" y="69.75" width="96.5" height="10.5" stroke="#494B50" stroke-width="1.5"/>
<rect x="123.75" y="20.75" width="95.5" height="10.5" stroke="#494B50" stroke-width="1.5"/>
<path d="M123.75 35.75L123.75 42.75L123.75 50.5L123.75 58.25L123.75 65.25L152.694 65.25L190.306 65.25L219.25 65.25L219.25 58.25L219.25 50.5L219.25 42.75L219.25 35.75L190.306 35.75L152.694 35.75L123.75 35.75Z" stroke="#494B50" stroke-width="1.5"/>
<rect x="123.75" y="69.75" width="95.5" height="10.5" stroke="#494B50" stroke-width="1.5"/>
<rect x="21.75" y="179.75" width="96.5" height="10.5" stroke="#494B50" stroke-width="1.5"/>
<rect x="0.75" y="0.75" width="29.5" height="10.5" transform="matrix(-4.37114e-08 1 1 4.37114e-08 21 194)" stroke="#494B50" stroke-width="1.5"/>
<rect x="0.75" y="0.75" width="29.5" height="10.5" transform="matrix(-4.37114e-08 1 1 4.37114e-08 107 194)" stroke="#494B50" stroke-width="1.5"/>
<rect x="0.75" y="0.75" width="29.5" height="10.5" transform="matrix(-4.37114e-08 1 1 4.37114e-08 36 194)" stroke="#494B50" stroke-width="1.5"/>
<rect x="0.75" y="0.75" width="29.5" height="10.5" transform="matrix(-4.37114e-08 1 1 4.37114e-08 92 194)" stroke="#494B50" stroke-width="1.5"/>
<rect x="0.75" y="0.75" width="29.5" height="36.5" transform="matrix(-4.37114e-08 1 1 4.37114e-08 51 194)" stroke="#494B50" stroke-width="1.5"/>
<rect x="0.75" y="0.75" width="29.5" height="10.5" transform="matrix(-4.4061e-08 1 1 4.33646e-08 21 307)" stroke="#494B50" stroke-width="1.5"/>
<rect x="0.75" y="0.75" width="29.5" height="10.5" transform="matrix(-4.4061e-08 1 1 4.33646e-08 107 307)" stroke="#494B50" stroke-width="1.5"/>
<rect x="0.75" y="0.75" width="29.5" height="10.5" transform="matrix(-4.4061e-08 1 1 4.33646e-08 36 307)" stroke="#494B50" stroke-width="1.5"/>
<rect x="0.75" y="0.75" width="29.5" height="10.5" transform="matrix(-4.4061e-08 1 1 4.33646e-08 92 307)" stroke="#494B50" stroke-width="1.5"/>
<rect x="0.75" y="0.75" width="29.5" height="36.5" transform="matrix(-4.4061e-08 1 1 4.33646e-08 51 307)" stroke="#494B50" stroke-width="1.5"/>
<rect x="21.75" y="341.75" width="96.5" height="10.5" stroke="#494B50" stroke-width="1.5"/>
<rect x="0.75" y="0.75" width="40.5" height="14.5" transform="matrix(-5.66629e-08 1 1 3.37202e-08 205 133)" stroke="#494B50" stroke-width="1.5"/>
<rect x="0.75" y="0.75" width="40.5" height="14.5" transform="matrix(-5.66629e-08 1 1 3.37202e-08 167 133)" stroke="#494B50" stroke-width="1.5"/>
<rect x="0.75" y="0.75" width="40.5" height="14.5" transform="matrix(-5.66629e-08 1 1 3.37202e-08 148 133)" stroke="#494B50" stroke-width="1.5"/>
<rect x="0.75" y="0.75" width="40.5" height="20.5" transform="matrix(-5.66629e-08 1 1 3.37202e-08 123 133)" stroke="#494B50" stroke-width="1.5"/>
<path d="M144 155H149" stroke="#494B50" stroke-width="2"/>
<path d="M163 155H168" stroke="#494B50" stroke-width="2"/>
<path d="M182 155H187" stroke="#494B50" stroke-width="2"/>
<path d="M201 155H206" stroke="#494B50" stroke-width="2"/>
<path d="M186.75 133.75L186.75 151L186.75 155L186.75 159L186.75 174.25L201.25 174.25L201.25 159L201.25 155L201.25 151L201.25 133.75L186.75 133.75Z" stroke="#494B50" stroke-width="1.5"/>
<rect x="123.75" y="179.75" width="96.5" height="10.5" stroke="#494B50" stroke-width="1.5"/>
<rect x="0.75" y="0.75" width="29.5" height="10.5" transform="matrix(-4.37114e-08 1 1 4.37114e-08 123 194)" stroke="#494B50" stroke-width="1.5"/>
<rect x="0.75" y="0.75" width="29.5" height="9.5" transform="matrix(-4.32654e-08 1 1 4.4162e-08 210 194)" stroke="#494B50" stroke-width="1.5"/>
<rect x="0.75" y="0.75" width="29.5" height="10.5" transform="matrix(-4.37114e-08 1 1 4.37114e-08 195 194)" stroke="#494B50" stroke-width="1.5"/>
<rect x="0.75" y="0.75" width="29.5" height="10.5" transform="matrix(-4.37114e-08 1 1 4.37114e-08 138 194)" stroke="#494B50" stroke-width="1.5"/>
<rect x="0.75" y="0.75" width="29.5" height="37.5" transform="matrix(-4.37114e-08 1 1 4.37114e-08 153 194)" stroke="#494B50" stroke-width="1.5"/>
<rect x="123.75" y="228.75" width="96.5" height="10.5" stroke="#494B50" stroke-width="1.5"/>
<rect x="123.75" y="243.75" width="96.5" height="10.5" stroke="#494B50" stroke-width="1.5"/>
<rect x="123.75" y="258.75" width="96.5" height="28.5" stroke="#494B50" stroke-width="1.5"/>
<rect x="123.75" y="291.75" width="96.5" height="12.5" stroke="#494B50" stroke-width="1.5"/>
<rect x="0.75" y="0.75" width="29.5" height="10.5" transform="matrix(-4.37114e-08 1 1 4.37114e-08 123 307)" stroke="#494B50" stroke-width="1.5"/>
<rect x="0.75" y="0.75" width="29.5" height="10.5" transform="matrix(-4.37114e-08 1 1 4.37114e-08 209 307)" stroke="#494B50" stroke-width="1.5"/>
<rect x="0.75" y="0.75" width="29.5" height="10.5" transform="matrix(-4.37114e-08 1 1 4.37114e-08 138 307)" stroke="#494B50" stroke-width="1.5"/>
<rect x="0.75" y="0.75" width="29.5" height="10.5" transform="matrix(-4.37114e-08 1 1 4.37114e-08 194 307)" stroke="#494B50" stroke-width="1.5"/>
<rect x="0.75" y="0.75" width="29.5" height="36.5" transform="matrix(-4.37114e-08 1 1 4.37114e-08 153 307)" stroke="#494B50" stroke-width="1.5"/>
<rect x="123.75" y="341.75" width="96.5" height="10.5" stroke="#494B50" stroke-width="1.5"/>
<rect x="306.25" y="20.75" width="153.5" height="38.5" transform="rotate(90 306.25 20.75)" stroke="#494B50" stroke-width="1.5"/>
<rect x="292.25" y="20.75" width="64.5656" height="10.5" transform="rotate(90 292.25 20.75)" stroke="#494B50" stroke-width="1.5"/>
<rect x="292.25" y="110.953" width="63.2951" height="10.5" transform="rotate(90 292.25 110.953)" stroke="#494B50" stroke-width="1.5"/>
<path d="M292.25 90.6282L292.25 98.1364L292.25 105.645L281.75 105.645L281.75 98.1364L281.75 90.6282L292.25 90.6282Z" stroke="#494B50" stroke-width="1.5"/>
<rect x="263.25" y="20.75" width="153.5" height="38.5" transform="rotate(90 263.25 20.75)" stroke="#494B50" stroke-width="1.5"/>
<rect x="249.25" y="20.75" width="66.5" height="10.5" transform="rotate(90 249.25 20.75)" stroke="#494B50" stroke-width="1.5"/>
<rect x="249.25" y="112.207" width="62.041" height="10.5" transform="rotate(90 249.25 112.207)" stroke="#494B50" stroke-width="1.5"/>
<path d="M249.25 92.2773L249.25 99.6257L249.25 106.974L238.75 106.974L238.75 99.6257L238.75 92.2773L249.25 92.2773Z" stroke="#494B50" stroke-width="1.5"/>
<path d="M139.25 146.75L139.25 154.098L139.25 161.447L128.75 161.447L128.75 154.098L128.75 146.75L139.25 146.75Z" stroke="#494B50" stroke-width="1.5"/>
<path d="M519.25 133.75L519.25 142.5L519.25 151.25L507.75 151.25L507.75 142.5L507.75 133.75L519.25 133.75Z" stroke="#494B50" stroke-width="1.5"/>
<path d="M519.25 156.75L519.25 165.5L519.25 174.25L507.75 174.25L507.75 165.5L507.75 156.75L519.25 156.75Z" stroke="#494B50" stroke-width="1.5"/>
<rect x="21.75" y="228.75" width="96.5" height="10.5" stroke="#494B50" stroke-width="1.5"/>
<rect x="21.75" y="291.75" width="96.5" height="12.5" stroke="#494B50" stroke-width="1.5"/>
<path d="M22 291L22 240" stroke="#494B50" stroke-width="1.5"/>
<path d="M28 291L28 264" stroke="#494B50" stroke-width="1.5"/>
<path d="M42 291L42 264" stroke="#494B50" stroke-width="1.5"/>
<path d="M56 291L56 264" stroke="#494B50" stroke-width="1.5"/>
<path d="M70 291L70 264" stroke="#494B50" stroke-width="1.5"/>
<path d="M83 252L102 252" stroke="#494B50" stroke-width="1.5"/>
<path d="M83 274L102 274" stroke="#494B50" stroke-width="1.5"/>
<path d="M25 267L25 240" stroke="#494B50" stroke-width="1.5"/>
<path d="M39 267L39 240" stroke="#494B50" stroke-width="1.5"/>
<path d="M53 267L53 240" stroke="#494B50" stroke-width="1.5"/>
<path d="M67 267L67 240" stroke="#494B50" stroke-width="1.5"/>
<path d="M99 249L118 249" stroke="#494B50" stroke-width="1.5"/>
<path d="M99 270L118 270" stroke="#494B50" stroke-width="1.5"/>
<path d="M35 291L35 264" stroke="#494B50" stroke-width="1.5"/>
<path d="M49 291L49 264" stroke="#494B50" stroke-width="1.5"/>
<path d="M63 291L63 264" stroke="#494B50" stroke-width="1.5"/>
<path d="M83 245L102 245" stroke="#494B50" stroke-width="1.5"/>
<path d="M83 266L102 266" stroke="#494B50" stroke-width="1.5"/>
<path d="M77 291L77 264" stroke="#494B50" stroke-width="1.5"/>
<path d="M83 259L102 259" stroke="#494B50" stroke-width="1.5"/>
<path d="M83 281L102 281" stroke="#494B50" stroke-width="1.5"/>
<path d="M83.5 288.25L102.5 288.25" stroke="#494B50" stroke-width="1.5"/>
<path d="M32 267L32 240" stroke="#494B50" stroke-width="1.5"/>
<path d="M46 267L46 240" stroke="#494B50" stroke-width="1.5"/>
<path d="M60 267L60 240" stroke="#494B50" stroke-width="1.5"/>
<path d="M99 242L118 242" stroke="#494B50" stroke-width="1.5"/>
<path d="M99 263L118 263" stroke="#494B50" stroke-width="1.5"/>
<path d="M74 267L74 240" stroke="#494B50" stroke-width="1.5"/>
<path d="M99 277L118 277" stroke="#494B50" stroke-width="1.5"/>
<path d="M99 256L118 256" stroke="#494B50" stroke-width="1.5"/>
<path d="M99 285L118 285" stroke="#494B50" stroke-width="1.5"/>
<path d="M118 292L118 241" stroke="#494B50" stroke-width="1.5"/>
<path d="M83 289L83 239" stroke="#494B50" stroke-width="1.5"/>
<rect x="-0.75" y="0.75" width="52.5" height="121.5" transform="matrix(-1 -8.74228e-08 -8.74228e-08 1 362.5 277)" stroke="#494B50" stroke-width="1.5"/>
<rect x="356.897" y="299.961" width="17.5588" height="16.2831" transform="rotate(-180 356.897 299.961)" stroke="#494B50" stroke-width="1.5"/>
<rect x="334.662" y="299.961" width="17.5588" height="16.2831" transform="rotate(-180 334.662 299.961)" stroke="#494B50" stroke-width="1.5"/>
<rect x="356.897" y="320.708" width="17.5588" height="16.2831" transform="rotate(-180 356.897 320.708)" stroke="#494B50" stroke-width="1.5"/>
<rect x="356.897" y="341.455" width="17.5588" height="16.2831" transform="rotate(-180 356.897 341.455)" stroke="#494B50" stroke-width="1.5"/>
<rect x="356.897" y="362.202" width="17.5588" height="16.2831" transform="rotate(-180 356.897 362.202)" stroke="#494B50" stroke-width="1.5"/>
<rect x="356.897" y="379.985" width="17.5588" height="13.3193" transform="rotate(-180 356.897 379.985)" stroke="#494B50" stroke-width="1.5"/>
<rect x="334.662" y="320.708" width="17.5588" height="16.2831" transform="rotate(-180 334.662 320.708)" stroke="#494B50" stroke-width="1.5"/>
<rect x="334.662" y="341.455" width="17.5588" height="16.2831" transform="rotate(-180 334.662 341.455)" stroke="#494B50" stroke-width="1.5"/>
<rect x="334.662" y="362.202" width="17.5588" height="16.2831" transform="rotate(-180 334.662 362.202)" stroke="#494B50" stroke-width="1.5"/>
<rect x="334.662" y="379.985" width="17.5588" height="13.3193" transform="rotate(-180 334.662 379.985)" stroke="#494B50" stroke-width="1.5"/>
<line x1="353.75" y1="380.735" x2="353.75" y2="398.518" stroke="#494B50" stroke-width="1.5"/>
<line x1="349.868" y1="380.735" x2="349.868" y2="398.518" stroke="#494B50" stroke-width="1.5"/>
<line x1="346.103" y1="380.735" x2="346.103" y2="398.518" stroke="#494B50" stroke-width="1.5"/>
<line x1="342.338" y1="380.735" x2="342.338" y2="398.518" stroke="#494B50" stroke-width="1.5"/>
<line x1="330.985" y1="380.735" x2="330.985" y2="398.518" stroke="#494B50" stroke-width="1.5"/>
<line x1="327.221" y1="380.735" x2="327.221" y2="398.518" stroke="#494B50" stroke-width="1.5"/>
<line x1="323.456" y1="380.735" x2="323.456" y2="398.518" stroke="#494B50" stroke-width="1.5"/>
<line x1="319.75" y1="380.735" x2="319.75" y2="398.518" stroke="#494B50" stroke-width="1.5"/>
<rect x="448.25" y="179.75" width="94.5" height="11.1234" transform="rotate(90 448.25 179.75)" stroke="#494B50" stroke-width="1.5"/>
<rect x="381.977" y="179.75" width="94.5" height="13.2273" transform="rotate(90 381.977 179.75)" stroke="#494B50" stroke-width="1.5"/>
<path d="M382.727 179.979L436.376 179.979" stroke="#494B50" stroke-width="1.5"/>
<path d="M382.727 185.857L411.13 185.857" stroke="#494B50" stroke-width="1.5"/>
<path d="M382.727 199.572L411.13 199.572" stroke="#494B50" stroke-width="1.5"/>
<path d="M382.727 213.286L411.13 213.286" stroke="#494B50" stroke-width="1.5"/>
<path d="M382.727 227L411.13 227" stroke="#494B50" stroke-width="1.5"/>
<path d="M423.753 239.735L423.753 258.347" stroke="#494B50" stroke-width="1.5"/>
<path d="M400.61 239.735L400.61 258.347" stroke="#494B50" stroke-width="1.5"/>
<path d="M407.974 182.918L436.376 182.918" stroke="#494B50" stroke-width="1.5"/>
<path d="M407.974 196.633L436.376 196.633" stroke="#494B50" stroke-width="1.5"/>
<path d="M407.974 210.347L436.376 210.347" stroke="#494B50" stroke-width="1.5"/>
<path d="M407.974 224.061L436.376 224.061" stroke="#494B50" stroke-width="1.5"/>
<path d="M426.909 255.408L426.909 274.021" stroke="#494B50" stroke-width="1.5"/>
<path d="M404.818 255.408L404.818 274.021" stroke="#494B50" stroke-width="1.5"/>
<path d="M382.727 192.714L411.13 192.714" stroke="#494B50" stroke-width="1.5"/>
<path d="M382.727 206.428L411.13 206.428" stroke="#494B50" stroke-width="1.5"/>
<path d="M382.727 220.143L411.13 220.143" stroke="#494B50" stroke-width="1.5"/>
<path d="M431.117 239.735L431.117 258.347" stroke="#494B50" stroke-width="1.5"/>
<path d="M409.026 239.735L409.026 258.347" stroke="#494B50" stroke-width="1.5"/>
<path d="M382.727 233.857L411.13 233.857" stroke="#494B50" stroke-width="1.5"/>
<path d="M416.389 239.735L416.389 258.347" stroke="#494B50" stroke-width="1.5"/>
<path d="M393.247 239.735L393.247 258.347" stroke="#494B50" stroke-width="1.5"/>
<path d="M385.62 240.224L385.62 258.837" stroke="#494B50" stroke-width="1.5"/>
<path d="M407.974 189.775L436.376 189.775" stroke="#494B50" stroke-width="1.5"/>
<path d="M407.974 203.49L436.376 203.49" stroke="#494B50" stroke-width="1.5"/>
<path d="M407.974 217.204L436.376 217.204" stroke="#494B50" stroke-width="1.5"/>
<path d="M434.273 255.408L434.273 274.021" stroke="#494B50" stroke-width="1.5"/>
<path d="M412.182 255.408L412.182 274.021" stroke="#494B50" stroke-width="1.5"/>
<path d="M407.974 230.918L436.376 230.918" stroke="#494B50" stroke-width="1.5"/>
<path d="M397.454 255.408L397.454 274.021" stroke="#494B50" stroke-width="1.5"/>
<path d="M419.545 255.408L419.545 274.021" stroke="#494B50" stroke-width="1.5"/>
<path d="M389.039 255.408L389.039 274.021" stroke="#494B50" stroke-width="1.5"/>
<path d="M381.675 274.021L435.324 274.021" stroke="#494B50" stroke-width="1.5"/>
<path d="M384.831 239.735L437.428 239.735" stroke="#494B50" stroke-width="1.5"/>
<rect x="519.25" y="179.75" width="94.5" height="11.877" transform="rotate(90 519.25 179.75)" stroke="#494B50" stroke-width="1.5"/>
<rect x="502.25" y="278.75" width="74.5" height="8.5" transform="rotate(90 502.25 278.75)" stroke="#494B50" stroke-width="1.5"/>
<rect x="514.25" y="278.75" width="74.5" height="8.5" transform="rotate(90 514.25 278.75)" stroke="#494B50" stroke-width="1.5"/>
<rect x="485.25" y="278.75" width="74.5" height="7.5" transform="rotate(90 485.25 278.75)" stroke="#494B50" stroke-width="1.5"/>
<path d="M494 316H502" stroke="#494B50" stroke-width="2"/>
<path d="M505 316H514" stroke="#494B50" stroke-width="2"/>
<rect x="491.25" y="278.75" width="74.5" height="2.5" transform="rotate(90 491.25 278.75)" stroke="#494B50" stroke-width="1.5"/>
<rect x="519.25" y="278.75" width="74.5" height="2.5" transform="rotate(90 519.25 278.75)" stroke="#494B50" stroke-width="1.5"/>
<rect x="-0.75" y="0.75" width="33.0574" height="10.2551" transform="matrix(-1 -8.29231e-08 -9.24388e-08 1 501.779 179)" stroke="#494B50" stroke-width="1.5"/>
<rect x="-0.75" y="0.75" width="33.0574" height="9.27551" transform="matrix(-1 -8.17309e-08 -9.39668e-08 1 501.779 264.224)" stroke="#494B50" stroke-width="1.5"/>
<rect x="-0.75" y="0.75" width="33.0574" height="10.2551" transform="matrix(-1 -8.21228e-08 -9.3454e-08 1 501.779 249.531)" stroke="#494B50" stroke-width="1.5"/>
<rect x="-0.75" y="0.75" width="33.0574" height="10.2551" transform="matrix(-1 -8.21228e-08 -9.3454e-08 1 501.779 193.694)" stroke="#494B50" stroke-width="1.5"/>
<rect x="-0.75" y="0.75" width="33.0574" height="36.7041" transform="matrix(-1 -8.21228e-08 -9.3454e-08 1 501.779 208.388)" stroke="#494B50" stroke-width="1.5"/>
<rect x="464.627" y="179.75" width="94.5" height="11.877" transform="rotate(90 464.627 179.75)" stroke="#494B50" stroke-width="1.5"/>
<rect x="118.25" y="133.75" width="40.5" height="96.5001" transform="rotate(90 118.25 133.75)" stroke="#494B50" stroke-width="1.5"/>
<rect x="0.75" y="0.75" width="13.3235" height="12.6687" transform="matrix(3.4084e-08 1 1 -5.60581e-08 100.108 137.941)" stroke="#494B50" stroke-width="1.5"/>
<rect x="0.75" y="0.75" width="13.3235" height="12.6687" transform="matrix(3.4084e-08 1 1 -5.60581e-08 100.108 155.235)" stroke="#494B50" stroke-width="1.5"/>
<rect x="0.75" y="0.75" width="13.3235" height="12.6687" transform="matrix(3.4084e-08 1 1 -5.60581e-08 83.5784 137.941)" stroke="#494B50" stroke-width="1.5"/>
<rect x="0.75" y="0.75" width="13.3235" height="12.6687" transform="matrix(3.4084e-08 1 1 -5.60581e-08 67.0481 137.941)" stroke="#494B50" stroke-width="1.5"/>
<rect x="0.75" y="0.75" width="13.3235" height="12.6687" transform="matrix(3.4084e-08 1 1 -5.60581e-08 50.5181 137.941)" stroke="#494B50" stroke-width="1.5"/>
<rect x="0.75" y="0.75" width="13.3235" height="10.3072" transform="matrix(2.84034e-08 1 1 -6.72697e-08 36.3491 137.941)" stroke="#494B50" stroke-width="1.5"/>
<rect x="0.75" y="0.75" width="13.3235" height="12.6687" transform="matrix(3.4084e-08 1 1 -5.60581e-08 83.5784 155.235)" stroke="#494B50" stroke-width="1.5"/>
<rect x="0.75" y="0.75" width="13.3235" height="12.6687" transform="matrix(3.4084e-08 1 1 -5.60581e-08 67.0481 155.235)" stroke="#494B50" stroke-width="1.5"/>
<rect x="0.75" y="0.75" width="13.3235" height="12.6687" transform="matrix(3.4084e-08 1 1 -5.60581e-08 50.5181 155.235)" stroke="#494B50" stroke-width="1.5"/>
<rect x="0.75" y="0.75" width="13.3235" height="10.3072" transform="matrix(2.84034e-08 1 1 -6.72697e-08 36.3491 155.235)" stroke="#494B50" stroke-width="1.5"/>
<line y1="-0.75" x2="14.1687" y2="-0.75" transform="matrix(-1 0 0 1 36.3491 140.412)" stroke="#494B50" stroke-width="1.5"/>
<line y1="-0.75" x2="14.1687" y2="-0.75" transform="matrix(-1 0 0 1 36.3491 145.353)" stroke="#494B50" stroke-width="1.5"/>
<line y1="-0.75" x2="14.1687" y2="-0.75" transform="matrix(-1 0 0 1 36.3491 149.059)" stroke="#494B50" stroke-width="1.5"/>
<line y1="-0.75" x2="14.1687" y2="-0.75" transform="matrix(-1 0 0 1 36.3491 152.765)" stroke="#494B50" stroke-width="1.5"/>
<line y1="-0.75" x2="14.1687" y2="-0.75" transform="matrix(-1 0 0 1 36.3491 157.706)" stroke="#494B50" stroke-width="1.5"/>
<line y1="-0.75" x2="14.1687" y2="-0.75" transform="matrix(-1 0 0 1 36.3491 161.412)" stroke="#494B50" stroke-width="1.5"/>
<line y1="-0.75" x2="14.1687" y2="-0.75" transform="matrix(-1 0 0 1 36.3491 165.118)" stroke="#494B50" stroke-width="1.5"/>
<line y1="-0.75" x2="14.1687" y2="-0.75" transform="matrix(-1 0 0 1 36.3491 170.059)" stroke="#494B50" stroke-width="1.5"/>
<rect x="474.25" y="278.75" width="74.5602" height="105.5" transform="rotate(90 474.25 278.75)" stroke="#494B50" stroke-width="1.5"/>
<line x1="369.289" y1="287.563" x2="475" y2="287.563" stroke="#494B50" stroke-width="1.5"/>
<line x1="391.205" y1="297.876" x2="449.217" y2="297.876" stroke="#494B50" stroke-width="1.5"/>
<line x1="391.205" y1="309.479" x2="449.217" y2="309.479" stroke="#494B50" stroke-width="1.5"/>
<line x1="391.205" y1="321.081" x2="449.217" y2="321.081" stroke="#494B50" stroke-width="1.5"/>
<line x1="391.205" y1="332.684" x2="449.217" y2="332.684" stroke="#494B50" stroke-width="1.5"/>
<line x1="403.557" y1="288.313" x2="403.557" y2="342.458" stroke="#494B50" stroke-width="1.5"/>
<line x1="415.16" y1="288.313" x2="415.16" y2="342.458" stroke="#494B50" stroke-width="1.5"/>
<line x1="426.762" y1="288.313" x2="426.762" y2="342.458" stroke="#494B50" stroke-width="1.5"/>
<line x1="438.364" y1="288.313" x2="438.364" y2="342.458" stroke="#494B50" stroke-width="1.5"/>
<line x1="448.678" y1="278" x2="448.678" y2="354.06" stroke="#494B50" stroke-width="1.5"/>
<line x1="369.289" y1="342.997" x2="475" y2="342.997" stroke="#494B50" stroke-width="1.5"/>
<line x1="391.955" y1="278" x2="391.955" y2="354.06" stroke="#494B50" stroke-width="1.5"/>
<rect x="232.25" y="277.75" width="23.5" height="7.49999" transform="rotate(90 232.25 277.75)" stroke="#494B50" stroke-width="1.5"/>
<rect x="244.25" y="277.75" width="23.5" height="7.5" transform="rotate(90 244.25 277.75)" stroke="#494B50" stroke-width="1.5"/>
<rect x="306.25" y="313.25" width="81.5" height="7.49999" transform="rotate(-180 306.25 313.25)" stroke="#494B50" stroke-width="1.5"/>
<rect x="281.25" y="330.25" width="31.5" height="12.5" transform="rotate(-180 281.25 330.25)" stroke="#494B50" stroke-width="1.5"/>
<rect x="281.25" y="359.25" width="31.5" height="12.5" transform="rotate(-180 281.25 359.25)" stroke="#494B50" stroke-width="1.5"/>
<rect x="306.25" y="371.25" width="81.5" height="7.49999" transform="rotate(-180 306.25 371.25)" stroke="#494B50" stroke-width="1.5"/>
<rect x="256.25" y="277.75" width="23.5" height="6.49999" transform="rotate(90 256.25 277.75)" stroke="#494B50" stroke-width="1.5"/>
<rect x="269.25" y="277.75" width="23.5" height="7.49999" transform="rotate(90 269.25 277.75)" stroke="#494B50" stroke-width="1.5"/>
<rect x="281.25" y="277.75" width="23.5" height="6.49999" transform="rotate(90 281.25 277.75)" stroke="#494B50" stroke-width="1.5"/>
<rect x="293.848" y="277.75" width="23.5" height="7.0862" transform="rotate(90 293.848 277.75)" stroke="#494B50" stroke-width="1.5"/>
<rect x="306.25" y="277.75" width="23.5" height="7.0862" transform="rotate(90 306.25 277.75)" stroke="#494B50" stroke-width="1.5"/>
<rect x="232.25" y="375.75" width="23.5" height="7.49999" transform="rotate(90 232.25 375.75)" stroke="#494B50" stroke-width="1.5"/>
<rect x="244.25" y="375.75" width="23.5" height="7.5" transform="rotate(90 244.25 375.75)" stroke="#494B50" stroke-width="1.5"/>
<rect x="256.25" y="375.75" width="23.5" height="6.49999" transform="rotate(90 256.25 375.75)" stroke="#494B50" stroke-width="1.5"/>
<rect x="269.25" y="375.75" width="23.5" height="7.49999" transform="rotate(90 269.25 375.75)" stroke="#494B50" stroke-width="1.5"/>
<rect x="281.25" y="375.75" width="23.5" height="6.49999" transform="rotate(90 281.25 375.75)" stroke="#494B50" stroke-width="1.5"/>
<rect x="293.848" y="375.75" width="23.5" height="7.0862" transform="rotate(90 293.848 375.75)" stroke="#494B50" stroke-width="1.5"/>
<rect x="306.25" y="375.75" width="23.5" height="7.0862" transform="rotate(90 306.25 375.75)" stroke="#494B50" stroke-width="1.5"/>
<rect x="0.75" y="0.75" width="41.5" height="19.5" transform="matrix(-4.37114e-08 1 1 4.37114e-08 224 317)" stroke="#494B50" stroke-width="1.5"/>
<rect x="0.75" y="0.75" width="41.5" height="19.5" transform="matrix(-4.37114e-08 1 1 4.37114e-08 286 317)" stroke="#494B50" stroke-width="1.5"/>
<line x1="249" y1="334.25" x2="282" y2="334.25" stroke="#494B50" stroke-width="1.5"/>
<line x1="249" y1="342.25" x2="282" y2="342.25" stroke="#494B50" stroke-width="1.5"/>
<line x1="249" y1="338.25" x2="282" y2="338.25" stroke="#494B50" stroke-width="1.5"/>
<rect x="502.25" y="174.25" width="190.5" height="40.5" transform="rotate(-180 502.25 174.25)" stroke="#494B50" stroke-width="1.5"/>
<rect x="502.25" y="159.55" width="80.3361" height="11.1" transform="rotate(-180 502.25 159.55)" stroke="#494B50" stroke-width="1.5"/>
<rect x="390.515" y="159.55" width="78.7623" height="11.1" transform="rotate(-180 390.515 159.55)" stroke="#494B50" stroke-width="1.5"/>
<path d="M415.691 159.55L406.212 159.55L396.732 159.55L396.732 148.45L406.212 148.45L415.691 148.45L415.691 159.55Z" stroke="#494B50" stroke-width="1.5"/>
</g>
</g>
<defs>
<linearGradient id="paint0_linear_2240_26117" x1="32.5" y1="-11.4184" x2="536.941" y2="423.548" gradientUnits="userSpaceOnUse">
<stop stop-color="#80D5F0"/>
<stop offset="1" stop-color="#439AF7"/>
</linearGradient>
<linearGradient id="paint1_linear_2240_26117" x1="68.5417" y1="93.2931" x2="87.3938" y2="150.188" gradientUnits="userSpaceOnUse">
<stop stop-color="#80D5F0"/>
<stop offset="1" stop-color="#439AF7"/>
</linearGradient>
<linearGradient id="paint2_linear_2240_26117" x1="386.824" y1="365.293" x2="404.116" y2="423.278" gradientUnits="userSpaceOnUse">
<stop stop-color="#80D5F0"/>
<stop offset="1" stop-color="#439AF7"/>
</linearGradient>
<linearGradient id="paint3_linear_2240_26117" x1="263.213" y1="211.739" x2="293.128" y2="261.895" gradientUnits="userSpaceOnUse">
<stop stop-color="#80D5F0"/>
<stop offset="1" stop-color="#439AF7"/>
</linearGradient>
<linearGradient id="paint4_linear_2240_26117" x1="87.5139" y1="363.239" x2="116.412" y2="415.151" gradientUnits="userSpaceOnUse">
<stop stop-color="#80D5F0"/>
<stop offset="1" stop-color="#439AF7"/>
</linearGradient>
<linearGradient id="paint5_linear_2240_26117" x1="341.171" y1="59.7388" x2="357.004" y2="123.826" gradientUnits="userSpaceOnUse">
<stop stop-color="#80D5F0"/>
<stop offset="1" stop-color="#439AF7"/>
</linearGradient>
<clipPath id="clip0_2240_26117">
<rect width="540" height="420" rx="10" fill="white"/>
</clipPath>
</defs>
</svg>
