<svg width="1024" height="1211" viewBox="0 0 1024 1211" fill="none" xmlns="http://www.w3.org/2000/svg">
<g opacity="0.1">
<mask id="path-1-inside-1_2408_36322" fill="white">
<path d="M1160.51 433.012C1161.16 433.428 1161.11 434.396 1160.42 434.739C1154.99 437.429 1149.63 440.257 1144.07 442.709C1101.43 461.563 1060.62 483.517 1025.95 515.063C1014.09 525.845 1003.38 538.085 993.339 550.613C983.819 562.484 980.639 577.024 980.783 592.119C980.79 592.738 980.82 593.357 980.866 593.98C981.289 599.674 986.475 603.887 992.184 603.887H1026.82C1033.07 603.887 1038.23 608.986 1037.43 615.192C1035.4 630.992 1029.13 644.798 1019.17 656.586C1003.97 674.556 997.78 695.915 990.614 717.356C980.164 748.614 979.462 780.837 981.94 812.814C984.521 846.146 972.13 872.722 952.14 897.511C936.445 916.98 921.245 936.86 905.633 956.412C889.628 976.456 883.659 999.089 885.374 1024.53C887.583 1057.15 895.266 1088.59 902.432 1120.34C908.276 1146.26 910.197 1173.04 913.728 1199.45C914.374 1204.21 908.451 1207.36 903.998 1205.57C899.708 1203.85 895.781 1202.16 892.374 1199.74C872.446 1185.59 860.179 1165.42 850.142 1143.75C845.657 1134.06 841.298 1124.31 836.941 1114.66C835.715 1111.94 833.456 1109.85 830.703 1108.71C820.918 1104.67 816.717 1101.55 813.479 1095.59C811.274 1091.53 807.384 1088.5 802.766 1088.52C783.14 1088.61 763.651 1090.87 744.84 1097.36C708.783 1109.79 672.663 1122.09 637.122 1135.83C597.513 1151.15 556.52 1154.25 515.258 1149.3C475.752 1144.56 436.7 1136.01 397.421 1129.38C384.245 1127.16 370.904 1125.85 357.667 1123.85C354.383 1123.36 351.12 1122.09 348.105 1120.63C324.315 1109.09 300.813 1096.93 276.796 1085.88C250.754 1073.91 230.64 1082.45 220.995 1109.03C217.03 1119.95 214.676 1131.43 210.835 1142.4C204.97 1159.14 198.836 1175.83 192.083 1192.22C188.32 1201.37 181.888 1207.01 172.78 1209.85C166.175 1211.91 160.4 1205.8 160.94 1198.9C161.566 1190.9 162.214 1183.09 163.543 1175.4C167.219 1154.19 173.414 1133.32 175.665 1111.98C177.896 1090.67 176.801 1068.98 176.553 1047.47C176.512 1044.35 173.621 1040.74 171.163 1038.23C153.548 1020.41 135.932 1002.58 117.883 985.205C98.7799 966.804 80.2142 947.786 67.4516 924.538C55.8455 903.405 37.7135 900.386 17.6197 904.288C-14.7205 910.572 -46.6683 918.746 -78.7814 926.181C-86.8107 928.043 -94.7859 930.12 -102.774 932.11C-103.759 932.356 -104.784 931.897 -105.258 930.999C-105.702 930.161 -105.56 929.132 -104.908 928.443C-101.077 924.397 -97.4985 920.587 -93.1961 917.021C-68.8893 896.894 -44.025 877.404 -20.0073 856.949C-5.6752 844.729 7.6863 831.339 20.9445 817.949C23.6086 815.258 25.2814 810.103 25.0129 806.242C18.3631 710.579 40.708 620.81 80.6479 534.655C96.8807 499.627 113.716 464.871 130.725 429.176C132.691 425.048 137.081 422.892 141.438 421.506C152.382 418.023 154.807 404.977 160.094 395.165C163.228 389.348 165.709 383.187 168.222 376.768C170.391 371.229 177.337 369.632 181.656 373.721C184.983 376.87 190.304 376.917 193.713 373.858C197.902 370.1 201.995 366.409 205.073 362.018C220.025 340.741 234.729 319.259 248.338 297.14C254.616 286.933 261.596 280.525 273.615 277.178C313.52 266.064 353.048 253.667 392.412 241.806C393.934 241.347 395.852 240.559 396.016 238.978C398.949 215.442 400.87 213.471 424.784 209.569C450.247 205.42 466.293 191.865 470.589 166.235C474.864 140.666 476.123 114.583 478.622 88.7059C480.708 66.9157 482.257 45.0639 484.838 23.3353C486.031 13.2704 488.409 7.14512 493.306 2.42144C497.866 -1.9775 505.161 0.66229 508.115 6.26823C511.681 13.0372 515.208 19.813 517.53 26.9704C525.852 52.6627 532.461 78.889 540.556 104.663C547.516 126.803 554.847 148.881 563.273 170.506C574.548 199.485 597.616 211.766 627.891 212.28C639.6 212.485 651.31 212.896 662.999 212.382C677.31 211.766 690.61 214.888 702.071 223.062C733.069 245.201 764.356 266.991 794.177 290.63C815.696 307.7 835.436 327.005 856.716 346.376C859.585 348.987 863.6 349.726 867.477 349.599C875.298 349.344 882.532 352.738 889.701 357.261C894.42 360.238 895.935 366.372 893.481 371.382C892.237 373.924 890.988 376.471 889.726 379.052C886.799 385.031 889.688 392.195 895.551 395.351C914.617 405.614 928.951 421.303 944.705 435.172C950.88 440.594 957.509 445.544 964.056 450.534C976.385 459.94 990.035 461.891 1005.03 458.133C1034.02 450.863 1063 443.49 1092.2 437.185C1114.85 432.291 1136.29 429.585 1160.12 432.867C1160.26 432.886 1160.39 432.936 1160.51 433.012ZM547.835 1060.2C547.842 1060.19 547.851 1060.19 547.861 1060.19C571.585 1060.19 595.308 1060.45 619.032 1060.02C625.372 1059.9 632.352 1058.98 637.907 1056.18C667.645 1041.25 697.569 1026.61 726.337 1009.97C756.013 992.825 758.512 984.302 749.714 950.887C741.784 920.8 727.142 893.588 711.653 866.971C693.336 835.467 679.045 803.203 678.136 765.907C677.661 746.335 672.003 727.563 662.648 710.004C654.366 694.457 641.542 687.105 624.257 686.879C576.448 686.263 529.631 691.951 484.095 707.293C366.382 746.992 294.68 843.394 292.697 963.764C292.222 992.804 304.861 1012.52 330.365 1024.02C348.146 1032.05 366.671 1038.73 385.34 1044.44C438.306 1060.64 492.986 1062.14 547.811 1060.21C547.82 1060.21 547.829 1060.2 547.835 1060.2ZM127.793 750.159C127.794 750.156 127.797 750.154 127.801 750.154C132.61 749.764 135.995 749.744 139.277 749.21C181.076 742.412 220.025 727.194 257.652 708.587C269.568 702.693 280.719 695.053 291.541 687.269C295.671 684.291 299.161 679.095 300.731 674.207C332.265 576.634 363.49 478.958 394.736 381.302C396.146 376.881 392.912 372.184 388.273 372.065C378.264 371.81 369.382 375.336 360.847 380.358C324.315 401.86 290.322 426.834 259.407 455.73C214.098 498.058 175.789 545.438 153.073 603.908C134.987 650.454 128.377 698.847 127.775 750.155C127.775 750.165 127.788 750.168 127.793 750.159ZM893.171 590.036C893.174 590.039 893.172 590.045 893.167 590.045C889.847 590.044 886.774 589.594 883.866 590.127C869.018 592.756 854.045 594.953 839.424 598.588C807.993 606.413 777.759 617.565 749.57 633.728C733.792 642.785 730.963 648.741 734.122 666.423C735.258 672.811 736.415 679.259 738.459 685.4C751.118 723.661 762.828 762.292 777.222 799.896C789.778 832.694 805.225 864.425 819.95 896.36C820.667 897.911 821.568 899.377 822.601 900.816C827.276 907.324 837.699 906.013 841.438 898.926C855.385 872.493 865.973 846.747 872.879 819.448C891.59 745.534 894.584 670.182 893.923 594.481C893.923 593.211 893.513 591.921 893.162 590.041C893.161 590.036 893.167 590.032 893.171 590.036ZM404.174 636.996C404.174 637.006 404.182 637.015 404.192 637.016C406.351 637.304 407.978 637.712 409.605 637.712C443.019 637.733 476.206 635.432 508.712 627.033C530.809 621.323 551.77 613.047 570.79 600.231C585.618 590.23 592.453 576.511 589.831 558.931C588.116 547.491 586.113 535.867 582.375 524.982C563.996 471.647 534.918 423.527 506.708 375.018C502.392 367.583 494.916 367.809 490.29 375.018C487.915 378.735 485.974 382.843 484.508 387.012C477.569 406.666 470.486 426.279 464.125 446.119C444.465 507.608 425.114 569.22 405.681 630.771C405.083 632.639 404.752 634.61 404.174 636.991C404.174 636.993 404.174 636.994 404.174 636.996ZM611.432 357.207C611.432 357.201 611.425 357.199 611.421 357.203L608.986 359.74C608.623 360.118 608.498 360.666 608.66 361.164C622.959 405.011 636.638 449.077 651.867 492.615C657.567 508.922 666.344 524.284 674.791 539.482C682.494 553.365 694.74 558.458 711.158 556.98C750.57 553.454 783.014 533.464 816.263 516.729C819.641 515.028 822.068 511.785 822.195 508.005C822.634 494.974 818.517 484.068 810.78 474.358C805.019 467.149 799.216 459.755 792.339 453.676C746.906 413.444 695.421 383.11 638.196 362.675C629.71 359.636 620.377 358.979 611.437 357.213C611.434 357.213 611.432 357.21 611.432 357.207ZM199.276 938.704C202.183 937.802 204.12 935.19 204.958 932.265C213.733 901.642 222.51 871.352 230.949 840.95C231.452 839.145 231.794 837.296 232.054 835.383C233.008 828.375 226.886 822.214 219.85 822.936C195.756 825.408 173.797 831.088 155.179 846.968C147.373 853.622 140.888 862.35 142.809 872.804C147.497 898.435 158.504 920.821 181.468 935.566C187.004 939.119 192.803 940.711 199.276 938.704Z"/>
</mask>
<path d="M1160.51 433.012C1161.16 433.428 1161.11 434.396 1160.42 434.739C1154.99 437.429 1149.63 440.257 1144.07 442.709C1101.43 461.563 1060.62 483.517 1025.95 515.063C1014.09 525.845 1003.38 538.085 993.339 550.613C983.819 562.484 980.639 577.024 980.783 592.119C980.79 592.738 980.82 593.357 980.866 593.98C981.289 599.674 986.475 603.887 992.184 603.887H1026.82C1033.07 603.887 1038.23 608.986 1037.43 615.192C1035.4 630.992 1029.13 644.798 1019.17 656.586C1003.97 674.556 997.78 695.915 990.614 717.356C980.164 748.614 979.462 780.837 981.94 812.814C984.521 846.146 972.13 872.722 952.14 897.511C936.445 916.98 921.245 936.86 905.633 956.412C889.628 976.456 883.659 999.089 885.374 1024.53C887.583 1057.15 895.266 1088.59 902.432 1120.34C908.276 1146.26 910.197 1173.04 913.728 1199.45C914.374 1204.21 908.451 1207.36 903.998 1205.57C899.708 1203.85 895.781 1202.16 892.374 1199.74C872.446 1185.59 860.179 1165.42 850.142 1143.75C845.657 1134.06 841.298 1124.31 836.941 1114.66C835.715 1111.94 833.456 1109.85 830.703 1108.71C820.918 1104.67 816.717 1101.55 813.479 1095.59C811.274 1091.53 807.384 1088.5 802.766 1088.52C783.14 1088.61 763.651 1090.87 744.84 1097.36C708.783 1109.79 672.663 1122.09 637.122 1135.83C597.513 1151.15 556.52 1154.25 515.258 1149.3C475.752 1144.56 436.7 1136.01 397.421 1129.38C384.245 1127.16 370.904 1125.85 357.667 1123.85C354.383 1123.36 351.12 1122.09 348.105 1120.63C324.315 1109.09 300.813 1096.93 276.796 1085.88C250.754 1073.91 230.64 1082.45 220.995 1109.03C217.03 1119.95 214.676 1131.43 210.835 1142.4C204.97 1159.14 198.836 1175.83 192.083 1192.22C188.32 1201.37 181.888 1207.01 172.78 1209.85C166.175 1211.91 160.4 1205.8 160.94 1198.9C161.566 1190.9 162.214 1183.09 163.543 1175.4C167.219 1154.19 173.414 1133.32 175.665 1111.98C177.896 1090.67 176.801 1068.98 176.553 1047.47C176.512 1044.35 173.621 1040.74 171.163 1038.23C153.548 1020.41 135.932 1002.58 117.883 985.205C98.7799 966.804 80.2142 947.786 67.4516 924.538C55.8455 903.405 37.7135 900.386 17.6197 904.288C-14.7205 910.572 -46.6683 918.746 -78.7814 926.181C-86.8107 928.043 -94.7859 930.12 -102.774 932.11C-103.759 932.356 -104.784 931.897 -105.258 930.999C-105.702 930.161 -105.56 929.132 -104.908 928.443C-101.077 924.397 -97.4985 920.587 -93.1961 917.021C-68.8893 896.894 -44.025 877.404 -20.0073 856.949C-5.6752 844.729 7.6863 831.339 20.9445 817.949C23.6086 815.258 25.2814 810.103 25.0129 806.242C18.3631 710.579 40.708 620.81 80.6479 534.655C96.8807 499.627 113.716 464.871 130.725 429.176C132.691 425.048 137.081 422.892 141.438 421.506C152.382 418.023 154.807 404.977 160.094 395.165C163.228 389.348 165.709 383.187 168.222 376.768C170.391 371.229 177.337 369.632 181.656 373.721C184.983 376.87 190.304 376.917 193.713 373.858C197.902 370.1 201.995 366.409 205.073 362.018C220.025 340.741 234.729 319.259 248.338 297.14C254.616 286.933 261.596 280.525 273.615 277.178C313.52 266.064 353.048 253.667 392.412 241.806C393.934 241.347 395.852 240.559 396.016 238.978C398.949 215.442 400.87 213.471 424.784 209.569C450.247 205.42 466.293 191.865 470.589 166.235C474.864 140.666 476.123 114.583 478.622 88.7059C480.708 66.9157 482.257 45.0639 484.838 23.3353C486.031 13.2704 488.409 7.14512 493.306 2.42144C497.866 -1.9775 505.161 0.66229 508.115 6.26823C511.681 13.0372 515.208 19.813 517.53 26.9704C525.852 52.6627 532.461 78.889 540.556 104.663C547.516 126.803 554.847 148.881 563.273 170.506C574.548 199.485 597.616 211.766 627.891 212.28C639.6 212.485 651.31 212.896 662.999 212.382C677.31 211.766 690.61 214.888 702.071 223.062C733.069 245.201 764.356 266.991 794.177 290.63C815.696 307.7 835.436 327.005 856.716 346.376C859.585 348.987 863.6 349.726 867.477 349.599C875.298 349.344 882.532 352.738 889.701 357.261C894.42 360.238 895.935 366.372 893.481 371.382C892.237 373.924 890.988 376.471 889.726 379.052C886.799 385.031 889.688 392.195 895.551 395.351C914.617 405.614 928.951 421.303 944.705 435.172C950.88 440.594 957.509 445.544 964.056 450.534C976.385 459.94 990.035 461.891 1005.03 458.133C1034.02 450.863 1063 443.49 1092.2 437.185C1114.85 432.291 1136.29 429.585 1160.12 432.867C1160.26 432.886 1160.39 432.936 1160.51 433.012ZM547.835 1060.2C547.842 1060.19 547.851 1060.19 547.861 1060.19C571.585 1060.19 595.308 1060.45 619.032 1060.02C625.372 1059.9 632.352 1058.98 637.907 1056.18C667.645 1041.25 697.569 1026.61 726.337 1009.97C756.013 992.825 758.512 984.302 749.714 950.887C741.784 920.8 727.142 893.588 711.653 866.971C693.336 835.467 679.045 803.203 678.136 765.907C677.661 746.335 672.003 727.563 662.648 710.004C654.366 694.457 641.542 687.105 624.257 686.879C576.448 686.263 529.631 691.951 484.095 707.293C366.382 746.992 294.68 843.394 292.697 963.764C292.222 992.804 304.861 1012.52 330.365 1024.02C348.146 1032.05 366.671 1038.73 385.34 1044.44C438.306 1060.64 492.986 1062.14 547.811 1060.21C547.82 1060.21 547.829 1060.2 547.835 1060.2ZM127.793 750.159C127.794 750.156 127.797 750.154 127.801 750.154C132.61 749.764 135.995 749.744 139.277 749.21C181.076 742.412 220.025 727.194 257.652 708.587C269.568 702.693 280.719 695.053 291.541 687.269C295.671 684.291 299.161 679.095 300.731 674.207C332.265 576.634 363.49 478.958 394.736 381.302C396.146 376.881 392.912 372.184 388.273 372.065C378.264 371.81 369.382 375.336 360.847 380.358C324.315 401.86 290.322 426.834 259.407 455.73C214.098 498.058 175.789 545.438 153.073 603.908C134.987 650.454 128.377 698.847 127.775 750.155C127.775 750.165 127.788 750.168 127.793 750.159ZM893.171 590.036C893.174 590.039 893.172 590.045 893.167 590.045C889.847 590.044 886.774 589.594 883.866 590.127C869.018 592.756 854.045 594.953 839.424 598.588C807.993 606.413 777.759 617.565 749.57 633.728C733.792 642.785 730.963 648.741 734.122 666.423C735.258 672.811 736.415 679.259 738.459 685.4C751.118 723.661 762.828 762.292 777.222 799.896C789.778 832.694 805.225 864.425 819.95 896.36C820.667 897.911 821.568 899.377 822.601 900.816C827.276 907.324 837.699 906.013 841.438 898.926C855.385 872.493 865.973 846.747 872.879 819.448C891.59 745.534 894.584 670.182 893.923 594.481C893.923 593.211 893.513 591.921 893.162 590.041C893.161 590.036 893.167 590.032 893.171 590.036ZM404.174 636.996C404.174 637.006 404.182 637.015 404.192 637.016C406.351 637.304 407.978 637.712 409.605 637.712C443.019 637.733 476.206 635.432 508.712 627.033C530.809 621.323 551.77 613.047 570.79 600.231C585.618 590.23 592.453 576.511 589.831 558.931C588.116 547.491 586.113 535.867 582.375 524.982C563.996 471.647 534.918 423.527 506.708 375.018C502.392 367.583 494.916 367.809 490.29 375.018C487.915 378.735 485.974 382.843 484.508 387.012C477.569 406.666 470.486 426.279 464.125 446.119C444.465 507.608 425.114 569.22 405.681 630.771C405.083 632.639 404.752 634.61 404.174 636.991C404.174 636.993 404.174 636.994 404.174 636.996ZM611.432 357.207C611.432 357.201 611.425 357.199 611.421 357.203L608.986 359.74C608.623 360.118 608.498 360.666 608.66 361.164C622.959 405.011 636.638 449.077 651.867 492.615C657.567 508.922 666.344 524.284 674.791 539.482C682.494 553.365 694.74 558.458 711.158 556.98C750.57 553.454 783.014 533.464 816.263 516.729C819.641 515.028 822.068 511.785 822.195 508.005C822.634 494.974 818.517 484.068 810.78 474.358C805.019 467.149 799.216 459.755 792.339 453.676C746.906 413.444 695.421 383.11 638.196 362.675C629.71 359.636 620.377 358.979 611.437 357.213C611.434 357.213 611.432 357.21 611.432 357.207ZM199.276 938.704C202.183 937.802 204.12 935.19 204.958 932.265C213.733 901.642 222.51 871.352 230.949 840.95C231.452 839.145 231.794 837.296 232.054 835.383C233.008 828.375 226.886 822.214 219.85 822.936C195.756 825.408 173.797 831.088 155.179 846.968C147.373 853.622 140.888 862.35 142.809 872.804C147.497 898.435 158.504 920.821 181.468 935.566C187.004 939.119 192.803 940.711 199.276 938.704Z" stroke="url(#paint0_linear_2408_36322)" stroke-opacity="0.5" stroke-width="4" mask="url(#path-1-inside-1_2408_36322)"/>
</g>
<defs>
<linearGradient id="paint0_linear_2408_36322" x1="528" y1="-4" x2="528" y2="1212" gradientUnits="userSpaceOnUse">
<stop stop-color="#FAC761" stop-opacity="0.2"/>
<stop offset="0.47743" stop-color="#FAC761" stop-opacity="0.84"/>
<stop offset="1" stop-color="#FAC761"/>
</linearGradient>
</defs>
</svg>
