<svg width="1267" height="1211" viewBox="0 0 1267 1211" fill="none" xmlns="http://www.w3.org/2000/svg">
<g opacity="0.1">
<mask id="path-1-inside-1_2408_36321" fill="white">
<path d="M1266.51 433.012C1267.16 433.428 1267.11 434.396 1266.42 434.739C1260.99 437.429 1255.63 440.257 1250.07 442.709C1207.43 461.563 1166.62 483.517 1131.95 515.063C1120.09 525.845 1109.38 538.085 1099.34 550.613C1089.82 562.484 1086.64 577.024 1086.78 592.119C1086.79 592.738 1086.82 593.357 1086.87 593.98C1087.29 599.674 1092.47 603.887 1098.18 603.887H1132.82C1139.07 603.887 1144.23 608.986 1143.43 615.192C1141.4 630.992 1135.13 644.798 1125.17 656.586C1109.97 674.556 1103.78 695.915 1096.61 717.356C1086.16 748.614 1085.46 780.837 1087.94 812.814C1090.52 846.146 1078.13 872.722 1058.14 897.511C1042.44 916.98 1027.25 936.86 1011.63 956.412C995.628 976.456 989.659 999.089 991.374 1024.53C993.583 1057.15 1001.27 1088.59 1008.43 1120.34C1014.28 1146.26 1016.2 1173.04 1019.73 1199.45C1020.37 1204.21 1014.45 1207.36 1010 1205.57C1005.71 1203.85 1001.78 1202.16 998.374 1199.74C978.446 1185.59 966.179 1165.42 956.142 1143.75C951.657 1134.06 947.298 1124.31 942.941 1114.66C941.715 1111.94 939.456 1109.85 936.703 1108.71C926.918 1104.67 922.717 1101.55 919.479 1095.59C917.274 1091.53 913.384 1088.5 908.766 1088.52C889.14 1088.61 869.651 1090.87 850.84 1097.36C814.783 1109.79 778.663 1122.09 743.122 1135.83C703.513 1151.15 662.52 1154.25 621.258 1149.3C581.752 1144.56 542.7 1136.01 503.421 1129.38C490.245 1127.16 476.904 1125.85 463.667 1123.85C460.383 1123.36 457.12 1122.09 454.105 1120.63C430.315 1109.09 406.813 1096.93 382.796 1085.88C356.754 1073.91 336.64 1082.45 326.995 1109.03C323.03 1119.95 320.676 1131.43 316.835 1142.4C310.97 1159.14 304.836 1175.83 298.083 1192.22C294.32 1201.37 287.888 1207.01 278.78 1209.85C272.175 1211.91 266.4 1205.8 266.94 1198.9C267.566 1190.9 268.214 1183.09 269.543 1175.4C273.219 1154.19 279.414 1133.32 281.665 1111.98C283.896 1090.67 282.801 1068.98 282.553 1047.47C282.512 1044.35 279.621 1040.74 277.163 1038.23C259.548 1020.41 241.932 1002.58 223.883 985.205C204.78 966.804 186.214 947.786 173.452 924.538C161.846 903.405 143.714 900.386 123.62 904.288C91.2795 910.572 59.3317 918.746 27.2186 926.181C19.1893 928.043 11.2141 930.12 3.22564 932.11C2.24068 932.356 1.21592 931.897 0.74167 930.999C0.298483 930.161 0.440224 929.132 1.09238 928.443C4.92326 924.397 8.50148 920.587 12.8039 917.021C37.1107 896.894 61.975 877.404 85.9927 856.949C100.325 844.729 113.686 831.339 126.945 817.949C129.609 815.258 131.281 810.103 131.013 806.242C124.363 710.579 146.708 620.81 186.648 534.655C202.881 499.627 219.716 464.871 236.725 429.176C238.691 425.048 243.081 422.892 247.438 421.506C258.382 418.023 260.807 404.977 266.094 395.165C269.228 389.348 271.709 383.187 274.222 376.768C276.391 371.229 283.337 369.632 287.656 373.721C290.983 376.87 296.304 376.917 299.713 373.858C303.902 370.1 307.995 366.409 311.073 362.018C326.025 340.741 340.729 319.259 354.338 297.14C360.616 286.933 367.596 280.525 379.615 277.178C419.52 266.064 459.048 253.667 498.412 241.806C499.934 241.347 501.852 240.559 502.016 238.978C504.949 215.442 506.87 213.471 530.784 209.569C556.247 205.42 572.293 191.865 576.589 166.235C580.864 140.666 582.123 114.583 584.622 88.7059C586.708 66.9157 588.257 45.0639 590.838 23.3353C592.031 13.2704 594.409 7.14512 599.306 2.42144C603.866 -1.9775 611.161 0.66229 614.115 6.26823C617.681 13.0372 621.208 19.813 623.53 26.9704C631.852 52.6627 638.461 78.889 646.556 104.663C653.516 126.803 660.847 148.881 669.273 170.506C680.548 199.485 703.616 211.766 733.891 212.28C745.6 212.485 757.31 212.896 768.999 212.382C783.31 211.766 796.61 214.888 808.071 223.062C839.069 245.201 870.356 266.991 900.177 290.63C921.696 307.7 941.436 327.005 962.716 346.376C965.585 348.987 969.6 349.726 973.477 349.599C981.298 349.344 988.532 352.738 995.701 357.261C1000.42 360.238 1001.94 366.372 999.481 371.382C998.237 373.924 996.988 376.471 995.726 379.052C992.799 385.031 995.688 392.195 1001.55 395.351C1020.62 405.614 1034.95 421.303 1050.71 435.172C1056.88 440.594 1063.51 445.544 1070.06 450.534C1082.38 459.94 1096.04 461.891 1111.03 458.133C1140.02 450.863 1169 443.49 1198.2 437.185C1220.85 432.291 1242.29 429.585 1266.12 432.867C1266.26 432.886 1266.39 432.936 1266.51 433.012ZM653.835 1060.2C653.842 1060.19 653.851 1060.19 653.861 1060.19C677.585 1060.19 701.308 1060.45 725.032 1060.02C731.372 1059.9 738.352 1058.98 743.907 1056.18C773.645 1041.25 803.569 1026.61 832.337 1009.97C862.013 992.825 864.512 984.302 855.714 950.887C847.784 920.8 833.142 893.588 817.653 866.971C799.336 835.467 785.045 803.203 784.136 765.907C783.661 746.335 778.003 727.563 768.648 710.004C760.366 694.457 747.542 687.105 730.257 686.879C682.448 686.263 635.631 691.951 590.095 707.293C472.382 746.992 400.68 843.394 398.697 963.764C398.222 992.804 410.861 1012.52 436.365 1024.02C454.146 1032.05 472.671 1038.73 491.34 1044.44C544.306 1060.64 598.986 1062.14 653.811 1060.21C653.82 1060.21 653.829 1060.2 653.835 1060.2ZM233.793 750.159C233.794 750.156 233.797 750.154 233.801 750.154C238.61 749.764 241.995 749.744 245.277 749.21C287.076 742.412 326.025 727.194 363.652 708.587C375.568 702.693 386.719 695.053 397.541 687.269C401.671 684.291 405.161 679.095 406.731 674.207C438.265 576.634 469.49 478.958 500.736 381.302C502.146 376.881 498.912 372.184 494.273 372.065C484.264 371.81 475.382 375.336 466.847 380.358C430.315 401.86 396.322 426.834 365.407 455.73C320.098 498.058 281.789 545.438 259.073 603.908C240.987 650.454 234.377 698.847 233.775 750.155C233.775 750.165 233.788 750.168 233.793 750.159ZM999.171 590.036C999.174 590.039 999.172 590.045 999.167 590.045C995.847 590.044 992.774 589.594 989.866 590.127C975.018 592.756 960.045 594.953 945.424 598.588C913.993 606.413 883.759 617.565 855.57 633.728C839.792 642.785 836.963 648.741 840.122 666.423C841.258 672.811 842.415 679.259 844.459 685.4C857.118 723.661 868.828 762.292 883.222 799.896C895.778 832.694 911.225 864.425 925.95 896.36C926.667 897.911 927.568 899.377 928.601 900.816C933.276 907.324 943.699 906.013 947.438 898.926C961.385 872.493 971.973 846.747 978.879 819.448C997.59 745.534 1000.58 670.182 999.923 594.481C999.923 593.211 999.513 591.921 999.162 590.041C999.161 590.036 999.167 590.032 999.171 590.036ZM510.174 636.996C510.174 637.006 510.182 637.015 510.192 637.016C512.351 637.304 513.978 637.712 515.605 637.712C549.019 637.733 582.206 635.432 614.712 627.033C636.809 621.323 657.77 613.047 676.79 600.231C691.618 590.23 698.453 576.511 695.831 558.931C694.116 547.491 692.113 535.867 688.375 524.982C669.996 471.647 640.918 423.527 612.708 375.018C608.392 367.583 600.916 367.809 596.29 375.018C593.915 378.735 591.974 382.843 590.508 387.012C583.569 406.666 576.486 426.279 570.125 446.119C550.465 507.608 531.114 569.22 511.681 630.771C511.083 632.639 510.752 634.61 510.174 636.991C510.174 636.993 510.174 636.994 510.174 636.996ZM717.432 357.207C717.432 357.201 717.425 357.199 717.421 357.203L714.986 359.74C714.623 360.118 714.498 360.666 714.66 361.164C728.959 405.011 742.638 449.077 757.867 492.615C763.567 508.922 772.344 524.284 780.791 539.482C788.494 553.365 800.74 558.458 817.158 556.98C856.57 553.454 889.014 533.464 922.263 516.729C925.641 515.028 928.068 511.785 928.195 508.005C928.634 494.974 924.517 484.068 916.78 474.358C911.019 467.149 905.216 459.755 898.339 453.676C852.906 413.444 801.421 383.11 744.196 362.675C735.71 359.636 726.377 358.979 717.437 357.213C717.434 357.213 717.432 357.21 717.432 357.207ZM305.276 938.704C308.183 937.802 310.12 935.19 310.958 932.265C319.733 901.642 328.51 871.352 336.949 840.95C337.452 839.145 337.794 837.296 338.054 835.383C339.008 828.375 332.886 822.214 325.85 822.936C301.756 825.408 279.797 831.088 261.179 846.968C253.373 853.622 246.888 862.35 248.809 872.804C253.497 898.435 264.504 920.821 287.468 935.566C293.004 939.119 298.803 940.711 305.276 938.704Z"/>
</mask>
<path d="M1266.51 433.012C1267.16 433.428 1267.11 434.396 1266.42 434.739C1260.99 437.429 1255.63 440.257 1250.07 442.709C1207.43 461.563 1166.62 483.517 1131.95 515.063C1120.09 525.845 1109.38 538.085 1099.34 550.613C1089.82 562.484 1086.64 577.024 1086.78 592.119C1086.79 592.738 1086.82 593.357 1086.87 593.98C1087.29 599.674 1092.47 603.887 1098.18 603.887H1132.82C1139.07 603.887 1144.23 608.986 1143.43 615.192C1141.4 630.992 1135.13 644.798 1125.17 656.586C1109.97 674.556 1103.78 695.915 1096.61 717.356C1086.16 748.614 1085.46 780.837 1087.94 812.814C1090.52 846.146 1078.13 872.722 1058.14 897.511C1042.44 916.98 1027.25 936.86 1011.63 956.412C995.628 976.456 989.659 999.089 991.374 1024.53C993.583 1057.15 1001.27 1088.59 1008.43 1120.34C1014.28 1146.26 1016.2 1173.04 1019.73 1199.45C1020.37 1204.21 1014.45 1207.36 1010 1205.57C1005.71 1203.85 1001.78 1202.16 998.374 1199.74C978.446 1185.59 966.179 1165.42 956.142 1143.75C951.657 1134.06 947.298 1124.31 942.941 1114.66C941.715 1111.94 939.456 1109.85 936.703 1108.71C926.918 1104.67 922.717 1101.55 919.479 1095.59C917.274 1091.53 913.384 1088.5 908.766 1088.52C889.14 1088.61 869.651 1090.87 850.84 1097.36C814.783 1109.79 778.663 1122.09 743.122 1135.83C703.513 1151.15 662.52 1154.25 621.258 1149.3C581.752 1144.56 542.7 1136.01 503.421 1129.38C490.245 1127.16 476.904 1125.85 463.667 1123.85C460.383 1123.36 457.12 1122.09 454.105 1120.63C430.315 1109.09 406.813 1096.93 382.796 1085.88C356.754 1073.91 336.64 1082.45 326.995 1109.03C323.03 1119.95 320.676 1131.43 316.835 1142.4C310.97 1159.14 304.836 1175.83 298.083 1192.22C294.32 1201.37 287.888 1207.01 278.78 1209.85C272.175 1211.91 266.4 1205.8 266.94 1198.9C267.566 1190.9 268.214 1183.09 269.543 1175.4C273.219 1154.19 279.414 1133.32 281.665 1111.98C283.896 1090.67 282.801 1068.98 282.553 1047.47C282.512 1044.35 279.621 1040.74 277.163 1038.23C259.548 1020.41 241.932 1002.58 223.883 985.205C204.78 966.804 186.214 947.786 173.452 924.538C161.846 903.405 143.714 900.386 123.62 904.288C91.2795 910.572 59.3317 918.746 27.2186 926.181C19.1893 928.043 11.2141 930.12 3.22564 932.11C2.24068 932.356 1.21592 931.897 0.74167 930.999C0.298483 930.161 0.440224 929.132 1.09238 928.443C4.92326 924.397 8.50148 920.587 12.8039 917.021C37.1107 896.894 61.975 877.404 85.9927 856.949C100.325 844.729 113.686 831.339 126.945 817.949C129.609 815.258 131.281 810.103 131.013 806.242C124.363 710.579 146.708 620.81 186.648 534.655C202.881 499.627 219.716 464.871 236.725 429.176C238.691 425.048 243.081 422.892 247.438 421.506C258.382 418.023 260.807 404.977 266.094 395.165C269.228 389.348 271.709 383.187 274.222 376.768C276.391 371.229 283.337 369.632 287.656 373.721C290.983 376.87 296.304 376.917 299.713 373.858C303.902 370.1 307.995 366.409 311.073 362.018C326.025 340.741 340.729 319.259 354.338 297.14C360.616 286.933 367.596 280.525 379.615 277.178C419.52 266.064 459.048 253.667 498.412 241.806C499.934 241.347 501.852 240.559 502.016 238.978C504.949 215.442 506.87 213.471 530.784 209.569C556.247 205.42 572.293 191.865 576.589 166.235C580.864 140.666 582.123 114.583 584.622 88.7059C586.708 66.9157 588.257 45.0639 590.838 23.3353C592.031 13.2704 594.409 7.14512 599.306 2.42144C603.866 -1.9775 611.161 0.66229 614.115 6.26823C617.681 13.0372 621.208 19.813 623.53 26.9704C631.852 52.6627 638.461 78.889 646.556 104.663C653.516 126.803 660.847 148.881 669.273 170.506C680.548 199.485 703.616 211.766 733.891 212.28C745.6 212.485 757.31 212.896 768.999 212.382C783.31 211.766 796.61 214.888 808.071 223.062C839.069 245.201 870.356 266.991 900.177 290.63C921.696 307.7 941.436 327.005 962.716 346.376C965.585 348.987 969.6 349.726 973.477 349.599C981.298 349.344 988.532 352.738 995.701 357.261C1000.42 360.238 1001.94 366.372 999.481 371.382C998.237 373.924 996.988 376.471 995.726 379.052C992.799 385.031 995.688 392.195 1001.55 395.351C1020.62 405.614 1034.95 421.303 1050.71 435.172C1056.88 440.594 1063.51 445.544 1070.06 450.534C1082.38 459.94 1096.04 461.891 1111.03 458.133C1140.02 450.863 1169 443.49 1198.2 437.185C1220.85 432.291 1242.29 429.585 1266.12 432.867C1266.26 432.886 1266.39 432.936 1266.51 433.012ZM653.835 1060.2C653.842 1060.19 653.851 1060.19 653.861 1060.19C677.585 1060.19 701.308 1060.45 725.032 1060.02C731.372 1059.9 738.352 1058.98 743.907 1056.18C773.645 1041.25 803.569 1026.61 832.337 1009.97C862.013 992.825 864.512 984.302 855.714 950.887C847.784 920.8 833.142 893.588 817.653 866.971C799.336 835.467 785.045 803.203 784.136 765.907C783.661 746.335 778.003 727.563 768.648 710.004C760.366 694.457 747.542 687.105 730.257 686.879C682.448 686.263 635.631 691.951 590.095 707.293C472.382 746.992 400.68 843.394 398.697 963.764C398.222 992.804 410.861 1012.52 436.365 1024.02C454.146 1032.05 472.671 1038.73 491.34 1044.44C544.306 1060.64 598.986 1062.14 653.811 1060.21C653.82 1060.21 653.829 1060.2 653.835 1060.2ZM233.793 750.159C233.794 750.156 233.797 750.154 233.801 750.154C238.61 749.764 241.995 749.744 245.277 749.21C287.076 742.412 326.025 727.194 363.652 708.587C375.568 702.693 386.719 695.053 397.541 687.269C401.671 684.291 405.161 679.095 406.731 674.207C438.265 576.634 469.49 478.958 500.736 381.302C502.146 376.881 498.912 372.184 494.273 372.065C484.264 371.81 475.382 375.336 466.847 380.358C430.315 401.86 396.322 426.834 365.407 455.73C320.098 498.058 281.789 545.438 259.073 603.908C240.987 650.454 234.377 698.847 233.775 750.155C233.775 750.165 233.788 750.168 233.793 750.159ZM999.171 590.036C999.174 590.039 999.172 590.045 999.167 590.045C995.847 590.044 992.774 589.594 989.866 590.127C975.018 592.756 960.045 594.953 945.424 598.588C913.993 606.413 883.759 617.565 855.57 633.728C839.792 642.785 836.963 648.741 840.122 666.423C841.258 672.811 842.415 679.259 844.459 685.4C857.118 723.661 868.828 762.292 883.222 799.896C895.778 832.694 911.225 864.425 925.95 896.36C926.667 897.911 927.568 899.377 928.601 900.816C933.276 907.324 943.699 906.013 947.438 898.926C961.385 872.493 971.973 846.747 978.879 819.448C997.59 745.534 1000.58 670.182 999.923 594.481C999.923 593.211 999.513 591.921 999.162 590.041C999.161 590.036 999.167 590.032 999.171 590.036ZM510.174 636.996C510.174 637.006 510.182 637.015 510.192 637.016C512.351 637.304 513.978 637.712 515.605 637.712C549.019 637.733 582.206 635.432 614.712 627.033C636.809 621.323 657.77 613.047 676.79 600.231C691.618 590.23 698.453 576.511 695.831 558.931C694.116 547.491 692.113 535.867 688.375 524.982C669.996 471.647 640.918 423.527 612.708 375.018C608.392 367.583 600.916 367.809 596.29 375.018C593.915 378.735 591.974 382.843 590.508 387.012C583.569 406.666 576.486 426.279 570.125 446.119C550.465 507.608 531.114 569.22 511.681 630.771C511.083 632.639 510.752 634.61 510.174 636.991C510.174 636.993 510.174 636.994 510.174 636.996ZM717.432 357.207C717.432 357.201 717.425 357.199 717.421 357.203L714.986 359.74C714.623 360.118 714.498 360.666 714.66 361.164C728.959 405.011 742.638 449.077 757.867 492.615C763.567 508.922 772.344 524.284 780.791 539.482C788.494 553.365 800.74 558.458 817.158 556.98C856.57 553.454 889.014 533.464 922.263 516.729C925.641 515.028 928.068 511.785 928.195 508.005C928.634 494.974 924.517 484.068 916.78 474.358C911.019 467.149 905.216 459.755 898.339 453.676C852.906 413.444 801.421 383.11 744.196 362.675C735.71 359.636 726.377 358.979 717.437 357.213C717.434 357.213 717.432 357.21 717.432 357.207ZM305.276 938.704C308.183 937.802 310.12 935.19 310.958 932.265C319.733 901.642 328.51 871.352 336.949 840.95C337.452 839.145 337.794 837.296 338.054 835.383C339.008 828.375 332.886 822.214 325.85 822.936C301.756 825.408 279.797 831.088 261.179 846.968C253.373 853.622 246.888 862.35 248.809 872.804C253.497 898.435 264.504 920.821 287.468 935.566C293.004 939.119 298.803 940.711 305.276 938.704Z" stroke="url(#paint0_linear_2408_36321)" stroke-opacity="0.5" stroke-width="4" mask="url(#path-1-inside-1_2408_36321)"/>
</g>
<defs>
<linearGradient id="paint0_linear_2408_36321" x1="634" y1="-4" x2="634" y2="1212" gradientUnits="userSpaceOnUse">
<stop stop-color="#FAC761" stop-opacity="0.2"/>
<stop offset="0.47743" stop-color="#FAC761" stop-opacity="0.84"/>
<stop offset="1" stop-color="#FAC761"/>
</linearGradient>
</defs>
</svg>
