<svg width="45" height="42" viewBox="0 0 45 42" fill="none" xmlns="http://www.w3.org/2000/svg">
<path d="M42.1332 14.2269C42.1533 14.2397 42.1516 14.2696 42.1302 14.2802C41.9626 14.3632 41.7968 14.4504 41.6252 14.526C40.3076 15.1074 39.0467 15.7845 37.9753 16.7573C37.6091 17.0898 37.2779 17.4673 36.9678 17.8536C36.6736 18.2197 36.5753 18.6681 36.5798 19.1336C36.5822 19.3425 36.78 19.4965 36.989 19.4965H37.9338C38.1649 19.4965 38.356 19.6852 38.3205 19.9135C38.249 20.3723 38.0593 20.7753 37.766 21.1217C37.2964 21.6759 37.105 22.3346 36.8835 22.9958C36.5607 23.9597 36.539 24.9535 36.6155 25.9396C36.6953 26.9675 36.3125 27.7871 35.6948 28.5515C35.2098 29.1519 34.7402 29.765 34.2578 30.368C33.7633 30.9861 33.5788 31.6841 33.6318 32.4688C33.7001 33.4745 33.9375 34.4442 34.1589 35.4234C34.3395 36.2227 34.3988 37.0485 34.5079 37.863C34.5279 38.0097 34.3452 38.1069 34.2077 38.0519C34.075 37.9987 33.9535 37.9467 33.8481 37.8719C33.2324 37.4355 32.8533 36.8136 32.5432 36.1454C32.4086 35.8551 32.2777 35.5631 32.1469 35.2738C32.1016 35.1736 32.0178 35.0964 31.9165 35.0538C31.6547 34.9436 31.5279 34.8534 31.4335 34.7C31.3442 34.5548 31.2039 34.4407 31.0334 34.4424C30.4426 34.4485 29.8561 34.5196 29.2896 34.7146C28.1754 35.0978 27.0594 35.4772 25.9613 35.9009C24.7374 36.3734 23.4708 36.469 22.1959 36.3164C20.9752 36.1701 19.7685 35.9066 18.5549 35.702C18.1478 35.6336 17.7356 35.5931 17.3265 35.5317C17.2251 35.5165 17.1243 35.4772 17.0311 35.4322C16.296 35.0763 15.5699 34.7013 14.8278 34.3606C14.0231 33.9914 13.4016 34.2548 13.1036 35.0744C12.9811 35.4113 12.9084 35.7654 12.7897 36.1036C12.6085 36.6198 12.4189 37.1347 12.2103 37.6401C12.1046 37.8965 11.9308 38.0635 11.6887 38.1576C11.4506 38.2501 11.2339 38.021 11.2543 37.7663C11.2719 37.5473 11.2918 37.3329 11.3284 37.1214C11.442 36.4671 11.6334 35.8236 11.703 35.1656C11.7719 34.5082 11.7381 33.8394 11.7304 33.1762C11.7292 33.08 11.6398 32.9685 11.5639 32.8912C11.0196 32.3415 10.4753 31.7917 9.9176 31.2559C9.32736 30.6884 8.75371 30.102 8.35937 29.385C8.00076 28.7333 7.44051 28.6402 6.81964 28.7605C5.82038 28.9543 4.83325 29.2064 3.84101 29.4357C3.59287 29.4931 3.3464 29.5572 3.09952 29.6186C3.06916 29.6261 3.03759 29.612 3.02295 29.5843C3.00924 29.5584 3.01362 29.5267 3.03379 29.5054C3.15214 29.3806 3.2627 29.2631 3.39562 29.1532C4.14666 28.5325 4.91493 27.9315 5.65703 27.3007C6.09987 26.9238 6.51272 26.5109 6.92238 26.0979C7.00469 26.015 7.05638 25.856 7.04808 25.7369C6.84262 22.7868 7.53304 20.0184 8.76711 17.3615C9.26242 16.2948 9.77588 15.2362 10.2947 14.1498C10.3674 13.9976 10.5323 13.9216 10.688 13.8565C10.9902 13.73 11.0656 13.3492 11.2219 13.0598C11.3186 12.8805 11.3953 12.6906 11.4729 12.4927C11.54 12.3217 11.7545 12.2723 11.8881 12.3985C11.9909 12.4956 12.1552 12.4971 12.2606 12.4027C12.39 12.2868 12.5165 12.173 12.6116 12.0376C13.0736 11.3814 13.528 10.7189 13.9485 10.0368C14.1424 9.72203 14.3581 9.52443 14.7295 9.42119C15.9625 9.07844 17.1839 8.69612 18.4002 8.33033C18.4472 8.3162 18.5064 8.29194 18.5115 8.24316C18.6021 7.51734 18.6614 7.45654 19.4004 7.3362C20.1871 7.20827 20.6829 6.79026 20.8156 5.99984C20.9477 5.21132 20.9867 4.40696 21.0639 3.60894C21.1283 2.93696 21.1762 2.26307 21.2559 1.59299C21.2887 1.31703 21.3504 1.13711 21.47 0.998213C21.6226 0.821094 21.8989 0.921169 22.0075 1.12816C22.1064 1.31655 22.2014 1.50604 22.266 1.70509C22.5232 2.49741 22.7274 3.3062 22.9775 4.10105C23.1926 4.7838 23.4191 5.46465 23.6794 6.13157C24.0278 7.02523 24.7406 7.40397 25.676 7.41981C26.0378 7.42614 26.3996 7.43881 26.7608 7.42297C27.203 7.40397 27.6139 7.50024 27.9681 7.75232C28.9258 8.43507 29.8926 9.10705 30.814 9.83603C31.4696 10.3551 32.0717 10.9411 32.7187 11.53C32.8245 11.6263 32.973 11.6522 33.116 11.6543C33.3253 11.6573 33.5214 11.743 33.7151 11.8598C33.8918 11.9663 33.947 12.1946 33.8561 12.3798C33.8374 12.4179 33.8186 12.4562 33.7998 12.4946C33.6914 12.7155 33.7985 12.9804 34.0124 13.1021C34.5689 13.4185 34.9967 13.882 35.4651 14.2935C35.6558 14.4608 35.8607 14.6134 36.063 14.7673C36.4439 15.0574 36.8657 15.1175 37.3289 15.0016C38.2248 14.7774 39.1201 14.5501 40.0223 14.3556C40.7222 14.2047 41.3847 14.1213 42.121 14.2224C42.1253 14.223 42.1295 14.2246 42.1332 14.2269ZM23.2024 33.5686C23.2026 33.5684 23.2029 33.5683 23.2032 33.5683C23.9362 33.5683 24.6693 33.5765 25.4023 33.5632C25.5982 33.5594 25.8139 33.5309 25.9855 33.4448C26.9044 32.9843 27.829 32.5328 28.7178 32.0197C29.6348 31.4909 29.712 31.2281 29.4402 30.1976C29.1951 29.2697 28.7427 28.4305 28.2641 27.6097C27.6982 26.6382 27.2566 25.6432 27.2285 24.493C27.2138 23.8894 27.039 23.3106 26.7499 22.769C26.4941 22.2896 26.0978 22.0629 25.5637 22.0559C24.0865 22.0369 22.64 22.2123 21.233 22.6854C17.5958 23.9097 15.3803 26.8826 15.3191 30.5947C15.3044 31.4903 15.6949 32.0983 16.483 32.453C17.0324 32.7006 17.6047 32.9064 18.1816 33.0825C19.8182 33.5822 21.5077 33.6284 23.2017 33.5689C23.202 33.5689 23.2022 33.5688 23.2024 33.5686ZM10.2238 24.0074C10.2239 24.0073 10.224 24.0072 10.2241 24.0072C10.3726 23.9952 10.4772 23.9946 10.5787 23.9781C11.8702 23.7685 13.0736 23.2992 14.2362 22.7253C14.6044 22.5436 14.949 22.308 15.2834 22.0679C15.411 21.9761 15.5188 21.8158 15.5673 21.6651C16.5417 18.6561 17.5065 15.6439 18.4719 12.6323C18.5155 12.496 18.4157 12.3511 18.2727 12.3474C17.9632 12.3394 17.6886 12.4482 17.4248 12.6031C16.296 13.2663 15.2457 14.0364 14.2905 14.9275C12.8905 16.2329 11.7068 17.694 11.0049 19.4972C10.4461 20.9326 10.2419 22.425 10.2233 24.0072C10.2233 24.0076 10.2237 24.0077 10.2238 24.0074ZM33.8727 19.0694C33.8728 19.0695 33.8728 19.0696 33.8726 19.0696C33.77 19.0696 33.6751 19.0557 33.5852 19.0722C33.1264 19.1532 32.6638 19.221 32.212 19.3331C31.2409 19.5744 30.3067 19.9183 29.4357 20.4168C28.9482 20.6961 28.8608 20.8798 28.9584 21.4251C28.9935 21.622 29.0292 21.8209 29.0924 22.0103C29.4835 23.1902 29.8453 24.3815 30.2901 25.5412C30.6781 26.5527 31.1554 27.5312 31.6103 28.5161C31.6187 28.5341 31.6279 28.5518 31.6378 28.5692C31.7839 28.8261 32.1846 28.7683 32.321 28.5061C32.7289 27.7221 33.0401 26.9553 33.2458 26.1442C33.8239 23.8647 33.9164 21.541 33.896 19.2064C33.896 19.1673 33.8833 19.1275 33.8725 19.0695C33.8724 19.0694 33.8726 19.0693 33.8727 19.0694ZM18.7635 20.5176C18.7635 20.5179 18.7638 20.5181 18.7641 20.5182C18.8308 20.527 18.8811 20.5396 18.9313 20.5396C19.9638 20.5403 20.9892 20.4693 21.9936 20.2103C22.6763 20.0342 23.324 19.779 23.9117 19.3838C24.3698 19.0753 24.5811 18.6523 24.5 18.1101C24.4471 17.7573 24.3852 17.3989 24.2697 17.0632C23.7018 15.4184 22.8033 13.9344 21.9317 12.4385C21.7983 12.2092 21.5673 12.2162 21.4244 12.4385C21.351 12.5531 21.291 12.6798 21.2457 12.8083C21.0313 13.4145 20.8125 14.0193 20.6159 14.6311C20.0085 16.5274 19.4106 18.4274 18.8101 20.3256C18.7916 20.3832 18.7814 20.444 18.7635 20.5174C18.7635 20.5175 18.7635 20.5175 18.7635 20.5176ZM25.1675 11.8892C25.1675 11.889 25.1673 11.8889 25.1671 11.8891L25.0919 11.9673C25.0807 11.9789 25.0768 11.9959 25.0819 12.0113C25.5236 13.3635 25.9463 14.7224 26.4169 16.065C26.593 16.5679 26.8642 17.0417 27.1251 17.5103C27.3632 17.9385 27.7415 18.0955 28.2488 18.0499C29.4536 17.9424 30.4477 17.3378 31.4636 16.8252C31.5884 16.7622 31.6788 16.6424 31.6806 16.5026C31.6853 16.1171 31.5587 15.7922 31.327 15.502C31.149 15.2797 30.9697 15.0517 30.7572 14.8642C29.3534 13.6235 27.7626 12.688 25.9944 12.0578C25.7322 11.9641 25.4439 11.9438 25.1676 11.8894C25.1675 11.8894 25.1675 11.8893 25.1675 11.8892ZM12.4048 29.8298C12.5136 29.8014 12.5851 29.7035 12.6161 29.5954C12.8846 28.6605 13.153 27.7356 13.4112 26.8073C13.4194 26.7777 13.4263 26.7478 13.4321 26.7174C13.4811 26.4608 13.2462 26.2311 12.9866 26.2605C12.2741 26.3412 11.6242 26.5211 11.07 26.9928C10.8288 27.198 10.6284 27.4672 10.6878 27.7896C10.8326 28.58 11.1727 29.2704 11.8823 29.7251C12.0454 29.8296 12.2159 29.8791 12.4048 29.8298Z" fill="#EAEAEC"/>
</svg>
